%
M48
M72
T01C0.0240
T02C0.0320
T03C0.0400
T04C0.0787
%
T01
X7600Y6640
X8600Y4640
X11100Y9640
X9600Y10140
X9100Y10640
X13100Y13640
X13600Y11140
X14600Y9640
X15100Y10140
X15100Y11140
X16100Y9140
X15100Y8140
X16100Y7140
X19100Y5140
X20100Y7140
X19600Y12140
X17600Y14140
X16600Y1640
X4100Y17640
X1600Y12640
T02
X4100Y19640
X4600Y20390
X5100Y19640
X7600Y19640
X8100Y20390
X8600Y19640
X11100Y19640
X11600Y20390
X12100Y19640
X14600Y19640
X15100Y20390
X15600Y19640
T03
X13100Y17140
X12100Y17140
X11100Y17140
X10100Y17140
X9100Y17140
X8100Y17140
X8100Y14640
X7100Y14640
X6100Y14640
X5100Y14640
X5600Y12640
X5600Y11640
X5600Y10640
X5600Y9640
X5600Y8640
X5600Y7640
X5100Y5640
X6100Y5640
X7100Y5640
X8100Y5640
X9100Y5640
X10100Y5640
X12100Y5640
X13100Y5640
X14100Y5640
X15100Y5640
X16100Y5640
X17100Y5640
X18100Y7640
X18100Y8640
X18100Y9640
X18100Y10640
X18100Y11640
X18100Y12640
X16600Y14640
X15600Y14640
X14600Y14640
X13600Y14640
X12600Y14640
X11600Y14640
X10100Y14640
X9100Y14640
X9100Y12140
X10100Y12140
X11100Y12140
X12100Y12140
X13100Y12140
X14100Y12140
X14100Y8140
X13100Y8140
X12100Y8140
X11100Y8140
X10100Y8140
X9100Y8140
X8600Y3140
X7600Y3140
X6600Y3140
X9600Y3140
X10600Y3140
X11600Y3140
X12600Y3140
X13600Y3140
X14600Y3140
X15600Y3140
X16600Y3140
X2600Y8640
X2600Y9640
X2600Y10640
X2600Y11640
T04
X2600Y3640
X18600Y19640
M30
