G75*
%MOIN*%
%OFA0B0*%
%FSLAX24Y24*%
%IPPOS*%
%LPD*%
%AMOC8*
5,1,8,0,0,1.08239X$1,22.5*
%
%ADD10C,0.0040*%
%ADD11C,0.0080*%
%ADD12C,0.0060*%
D10*
X009776Y005853D02*
X010083Y005853D01*
X009930Y005700D02*
X009930Y006007D01*
X010083Y006160D02*
X010160Y006237D01*
X010160Y006391D01*
X010083Y006467D01*
X010007Y006467D01*
X009930Y006391D01*
X009930Y006314D01*
X009930Y006391D02*
X009853Y006467D01*
X009776Y006467D01*
X009700Y006391D01*
X009700Y006237D01*
X009776Y006160D01*
X009700Y006621D02*
X010007Y006621D01*
X010160Y006774D01*
X010007Y006928D01*
X009700Y006928D01*
X009776Y007081D02*
X009700Y007158D01*
X009700Y007311D01*
X009776Y007388D01*
X009853Y007388D01*
X009930Y007311D01*
X010007Y007388D01*
X010083Y007388D01*
X010160Y007311D01*
X010160Y007158D01*
X010083Y007081D01*
X009930Y007235D02*
X009930Y007311D01*
X010700Y006774D02*
X010853Y006621D01*
X011160Y006621D01*
X011160Y006467D02*
X011160Y006160D01*
X011160Y006007D02*
X010700Y006007D01*
X010853Y005853D01*
X010700Y005700D01*
X011160Y005700D01*
X011700Y005700D02*
X011853Y005853D01*
X011700Y006007D01*
X012160Y006007D01*
X012160Y006160D02*
X012160Y006467D01*
X012160Y006314D02*
X011700Y006314D01*
X011853Y006160D01*
X011700Y005700D02*
X012160Y005700D01*
X012700Y005700D02*
X012853Y005853D01*
X012700Y006007D01*
X013160Y006007D01*
X013160Y006160D02*
X013160Y006467D01*
X013160Y006314D02*
X012700Y006314D01*
X012853Y006160D01*
X012930Y006621D02*
X012930Y006851D01*
X013007Y006928D01*
X013083Y006928D01*
X013160Y006851D01*
X013160Y006621D01*
X012700Y006621D01*
X012700Y006851D01*
X012776Y006928D01*
X012853Y006928D01*
X012930Y006851D01*
X012160Y006621D02*
X011700Y006621D01*
X011700Y006851D01*
X011776Y006928D01*
X011930Y006928D01*
X012007Y006851D01*
X012007Y006621D01*
X011160Y006928D02*
X010853Y006928D01*
X010700Y006774D01*
X010930Y006621D02*
X010930Y006928D01*
X010700Y006314D02*
X011160Y006314D01*
X010853Y006160D02*
X010700Y006314D01*
X012700Y005700D02*
X013160Y005700D01*
X013700Y005700D02*
X013853Y005853D01*
X013700Y006007D01*
X014160Y006007D01*
X014160Y006160D02*
X013853Y006467D01*
X013776Y006467D01*
X013700Y006391D01*
X013700Y006237D01*
X013776Y006160D01*
X014160Y006160D02*
X014160Y006467D01*
X014160Y006621D02*
X013853Y006621D01*
X013700Y006774D01*
X013853Y006928D01*
X014160Y006928D01*
X013930Y006928D02*
X013930Y006621D01*
X014700Y006621D02*
X014700Y006851D01*
X014776Y006928D01*
X014930Y006928D01*
X015007Y006851D01*
X015007Y006621D01*
X015160Y006621D02*
X014700Y006621D01*
X014776Y006467D02*
X014700Y006391D01*
X014700Y006237D01*
X014776Y006160D01*
X014700Y006007D02*
X015160Y006007D01*
X015160Y006160D02*
X014853Y006467D01*
X014776Y006467D01*
X015160Y006467D02*
X015160Y006160D01*
X014853Y005853D02*
X014700Y006007D01*
X014853Y005853D02*
X014700Y005700D01*
X015160Y005700D01*
X015700Y005700D02*
X015853Y005853D01*
X015700Y006007D01*
X016160Y006007D01*
X016160Y006160D02*
X015853Y006467D01*
X015776Y006467D01*
X015700Y006391D01*
X015700Y006237D01*
X015776Y006160D01*
X016160Y006160D02*
X016160Y006467D01*
X016160Y006621D02*
X016160Y006851D01*
X016083Y006928D01*
X016007Y006928D01*
X015930Y006851D01*
X015930Y006621D01*
X015930Y006851D02*
X015853Y006928D01*
X015776Y006928D01*
X015700Y006851D01*
X015700Y006621D01*
X016160Y006621D01*
X016700Y006774D02*
X016853Y006621D01*
X017160Y006621D01*
X017083Y006467D02*
X017160Y006391D01*
X017160Y006237D01*
X017083Y006160D01*
X017160Y006007D02*
X016700Y006007D01*
X016853Y005853D01*
X016700Y005700D01*
X017160Y005700D01*
X017700Y005700D02*
X017853Y005853D01*
X017700Y006007D01*
X018160Y006007D01*
X018083Y006160D02*
X018160Y006237D01*
X018160Y006391D01*
X018083Y006467D01*
X018007Y006467D01*
X017930Y006391D01*
X017930Y006314D01*
X017930Y006391D02*
X017853Y006467D01*
X017776Y006467D01*
X017700Y006391D01*
X017700Y006237D01*
X017776Y006160D01*
X017700Y005700D02*
X018160Y005700D01*
X018700Y005700D02*
X018853Y005853D01*
X018700Y006007D01*
X019160Y006007D01*
X019083Y006160D02*
X019160Y006237D01*
X019160Y006391D01*
X019083Y006467D01*
X019007Y006467D01*
X018930Y006391D01*
X018930Y006314D01*
X018930Y006391D02*
X018853Y006467D01*
X018776Y006467D01*
X018700Y006391D01*
X018700Y006237D01*
X018776Y006160D01*
X018700Y005700D02*
X019160Y005700D01*
X019700Y005700D02*
X019853Y005853D01*
X019700Y006007D01*
X020160Y006007D01*
X019930Y006160D02*
X019700Y006391D01*
X020160Y006391D01*
X020160Y006621D02*
X019853Y006621D01*
X019700Y006774D01*
X019853Y006928D01*
X020160Y006928D01*
X019930Y006928D02*
X019930Y006621D01*
X019930Y006467D02*
X019930Y006160D01*
X020160Y005700D02*
X019700Y005700D01*
X020700Y005700D02*
X020853Y005853D01*
X020700Y006007D01*
X021160Y006007D01*
X020930Y006160D02*
X020700Y006391D01*
X021160Y006391D01*
X021160Y006621D02*
X020700Y006621D01*
X020700Y006851D01*
X020776Y006928D01*
X020930Y006928D01*
X021007Y006851D01*
X021007Y006621D01*
X020930Y006467D02*
X020930Y006160D01*
X021160Y005700D02*
X020700Y005700D01*
X021700Y005700D02*
X021853Y005853D01*
X021700Y006007D01*
X022160Y006007D01*
X021930Y006160D02*
X021700Y006391D01*
X022160Y006391D01*
X022160Y006621D02*
X021700Y006621D01*
X021700Y006851D01*
X021776Y006928D01*
X021853Y006928D01*
X021930Y006851D01*
X021930Y006621D01*
X021930Y006467D02*
X021930Y006160D01*
X022160Y005700D02*
X021700Y005700D01*
X022700Y005777D02*
X022776Y005700D01*
X023083Y005700D01*
X023160Y005777D01*
X023160Y005930D01*
X023083Y006007D01*
X022930Y006007D01*
X022930Y005853D01*
X022776Y006007D02*
X022700Y005930D01*
X022700Y005777D01*
X022700Y006160D02*
X023160Y006467D01*
X022700Y006467D01*
X022700Y006621D02*
X022700Y006851D01*
X022776Y006928D01*
X023083Y006928D01*
X023160Y006851D01*
X023160Y006621D01*
X022700Y006621D01*
X022700Y006160D02*
X023160Y006160D01*
X023700Y006200D02*
X024007Y006200D01*
X024160Y006353D01*
X024007Y006507D01*
X023700Y006507D01*
X023700Y006660D02*
X023700Y006814D01*
X023700Y006737D02*
X024160Y006737D01*
X024160Y006660D02*
X024160Y006814D01*
X024160Y006967D02*
X023700Y006967D01*
X024160Y007274D01*
X023700Y007274D01*
X022160Y006851D02*
X022160Y006621D01*
X022160Y006851D02*
X022083Y006928D01*
X022007Y006928D01*
X021930Y006851D01*
X019160Y006851D02*
X019160Y006621D01*
X018700Y006621D01*
X018700Y006851D01*
X018776Y006928D01*
X018853Y006928D01*
X018930Y006851D01*
X018930Y006621D01*
X018930Y006851D02*
X019007Y006928D01*
X019083Y006928D01*
X019160Y006851D01*
X018160Y006621D02*
X017700Y006621D01*
X017700Y006851D01*
X017776Y006928D01*
X017930Y006928D01*
X018007Y006851D01*
X018007Y006621D01*
X017160Y006928D02*
X016853Y006928D01*
X016700Y006774D01*
X016930Y006621D02*
X016930Y006928D01*
X017007Y006467D02*
X017083Y006467D01*
X017007Y006467D02*
X016930Y006391D01*
X016930Y006314D01*
X016930Y006391D02*
X016853Y006467D01*
X016776Y006467D01*
X016700Y006391D01*
X016700Y006237D01*
X016776Y006160D01*
X016160Y005700D02*
X015700Y005700D01*
X014160Y005700D02*
X013700Y005700D01*
X013776Y010200D02*
X014083Y010200D01*
X014160Y010277D01*
X014160Y010430D01*
X014083Y010507D01*
X013930Y010507D01*
X013930Y010353D01*
X013776Y010200D02*
X013700Y010277D01*
X013700Y010430D01*
X013776Y010507D01*
X013700Y010660D02*
X014160Y010967D01*
X013700Y010967D01*
X013700Y011121D02*
X013700Y011351D01*
X013776Y011428D01*
X014083Y011428D01*
X014160Y011351D01*
X014160Y011121D01*
X013700Y011121D01*
X013700Y010660D02*
X014160Y010660D01*
X013160Y010660D02*
X013160Y010891D01*
X013083Y010967D01*
X012776Y010967D01*
X012700Y010891D01*
X012700Y010660D01*
X013160Y010660D01*
X013007Y010507D02*
X013160Y010353D01*
X013007Y010200D01*
X012700Y010200D01*
X012700Y010507D02*
X013007Y010507D01*
X013160Y011121D02*
X012700Y011121D01*
X012700Y011351D01*
X012776Y011428D01*
X013083Y011428D01*
X013160Y011351D01*
X013160Y011121D01*
X012160Y011007D02*
X011700Y011007D01*
X012160Y011314D01*
X011700Y011314D01*
X011700Y011467D02*
X011700Y011698D01*
X011776Y011774D01*
X011853Y011774D01*
X011930Y011698D01*
X011930Y011467D01*
X012160Y011467D02*
X011700Y011467D01*
X011930Y011698D02*
X012007Y011774D01*
X012083Y011774D01*
X012160Y011698D01*
X012160Y011467D01*
X012160Y010853D02*
X012160Y010700D01*
X012160Y010777D02*
X011700Y010777D01*
X011700Y010853D02*
X011700Y010700D01*
X011160Y010660D02*
X011007Y010814D01*
X011160Y010967D01*
X010700Y010967D01*
X010700Y011121D02*
X010853Y011274D01*
X010700Y011428D01*
X011160Y011428D01*
X011160Y011121D02*
X010700Y011121D01*
X010700Y010660D02*
X011160Y010660D01*
X011007Y010430D02*
X011007Y010200D01*
X011160Y010200D02*
X010700Y010200D01*
X010700Y010430D01*
X010776Y010507D01*
X010930Y010507D01*
X011007Y010430D01*
X010160Y010700D02*
X010160Y010853D01*
X010160Y010777D02*
X009700Y010777D01*
X009700Y010853D02*
X009700Y010700D01*
X009700Y011007D02*
X010160Y011314D01*
X009700Y011314D01*
X009853Y011467D02*
X009700Y011621D01*
X009853Y011774D01*
X010160Y011774D01*
X009930Y011774D02*
X009930Y011467D01*
X009853Y011467D02*
X010160Y011467D01*
X010160Y011007D02*
X009700Y011007D01*
X010700Y014700D02*
X010700Y014930D01*
X010776Y015007D01*
X010930Y015007D01*
X011007Y014930D01*
X011007Y014700D01*
X011160Y014700D02*
X010700Y014700D01*
X010700Y015160D02*
X011160Y015160D01*
X011007Y015314D01*
X011160Y015467D01*
X010700Y015467D01*
X010700Y015621D02*
X010853Y015774D01*
X010700Y015928D01*
X011160Y015928D01*
X011160Y015621D02*
X010700Y015621D01*
X010160Y015507D02*
X009700Y015507D01*
X010160Y015814D01*
X009700Y015814D01*
X009853Y015967D02*
X009700Y016121D01*
X009853Y016274D01*
X010160Y016274D01*
X009930Y016274D02*
X009930Y015967D01*
X009853Y015967D02*
X010160Y015967D01*
X010160Y015353D02*
X010160Y015200D01*
X010160Y015277D02*
X009700Y015277D01*
X009700Y015353D02*
X009700Y015200D01*
X011700Y015200D02*
X011700Y015353D01*
X011700Y015277D02*
X012160Y015277D01*
X012160Y015353D02*
X012160Y015200D01*
X012160Y015507D02*
X011700Y015507D01*
X012160Y015814D01*
X011700Y015814D01*
X011700Y015967D02*
X011700Y016198D01*
X011776Y016274D01*
X011853Y016274D01*
X011930Y016198D01*
X011930Y015967D01*
X012160Y015967D02*
X011700Y015967D01*
X011930Y016198D02*
X012007Y016274D01*
X012083Y016274D01*
X012160Y016198D01*
X012160Y015967D01*
X012700Y015851D02*
X012700Y015621D01*
X013160Y015621D01*
X013160Y015851D01*
X013083Y015928D01*
X012776Y015928D01*
X012700Y015851D01*
X012776Y015467D02*
X012700Y015391D01*
X012700Y015160D01*
X013160Y015160D01*
X013160Y015391D01*
X013083Y015467D01*
X012776Y015467D01*
X012700Y015007D02*
X013007Y015007D01*
X013160Y014853D01*
X013007Y014700D01*
X012700Y014700D01*
X013700Y014777D02*
X013776Y014700D01*
X014083Y014700D01*
X014160Y014777D01*
X014160Y014930D01*
X014083Y015007D01*
X013930Y015007D01*
X013930Y014853D01*
X013776Y015007D02*
X013700Y014930D01*
X013700Y014777D01*
X013700Y015160D02*
X014160Y015467D01*
X013700Y015467D01*
X013700Y015621D02*
X013700Y015851D01*
X013776Y015928D01*
X014083Y015928D01*
X014160Y015851D01*
X014160Y015621D01*
X013700Y015621D01*
X013700Y015160D02*
X014160Y015160D01*
X019700Y015200D02*
X019700Y015353D01*
X019700Y015277D02*
X020160Y015277D01*
X020160Y015353D02*
X020160Y015200D01*
X020160Y015507D02*
X019700Y015507D01*
X020160Y015814D01*
X019700Y015814D01*
X019853Y015967D02*
X019700Y016121D01*
X019853Y016274D01*
X020160Y016274D01*
X019930Y016274D02*
X019930Y015967D01*
X019853Y015967D02*
X020160Y015967D01*
X020700Y015928D02*
X020853Y015774D01*
X020700Y015621D01*
X021160Y015621D01*
X021160Y015467D02*
X020700Y015467D01*
X021007Y015314D02*
X021160Y015467D01*
X021007Y015314D02*
X021160Y015160D01*
X020700Y015160D01*
X020776Y015007D02*
X020930Y015007D01*
X021007Y014930D01*
X021007Y014700D01*
X021160Y014700D02*
X020700Y014700D01*
X020700Y014930D01*
X020776Y015007D01*
X021700Y015200D02*
X021700Y015353D01*
X021700Y015277D02*
X022160Y015277D01*
X022160Y015353D02*
X022160Y015200D01*
X022160Y015507D02*
X021700Y015507D01*
X022160Y015814D01*
X021700Y015814D01*
X021700Y015967D02*
X021700Y016198D01*
X021776Y016274D01*
X021853Y016274D01*
X021930Y016198D01*
X021930Y015967D01*
X022160Y015967D02*
X021700Y015967D01*
X021930Y016198D02*
X022007Y016274D01*
X022083Y016274D01*
X022160Y016198D01*
X022160Y015967D01*
X022700Y015851D02*
X022700Y015621D01*
X023160Y015621D01*
X023160Y015851D01*
X023083Y015928D01*
X022776Y015928D01*
X022700Y015851D01*
X022776Y015467D02*
X022700Y015391D01*
X022700Y015160D01*
X023160Y015160D01*
X023160Y015391D01*
X023083Y015467D01*
X022776Y015467D01*
X022700Y015007D02*
X023007Y015007D01*
X023160Y014853D01*
X023007Y014700D01*
X022700Y014700D01*
X023700Y014777D02*
X023776Y014700D01*
X024083Y014700D01*
X024160Y014777D01*
X024160Y014930D01*
X024083Y015007D01*
X023930Y015007D01*
X023930Y014853D01*
X023776Y015007D02*
X023700Y014930D01*
X023700Y014777D01*
X023700Y015160D02*
X024160Y015467D01*
X023700Y015467D01*
X023700Y015621D02*
X023700Y015851D01*
X023776Y015928D01*
X024083Y015928D01*
X024160Y015851D01*
X024160Y015621D01*
X023700Y015621D01*
X023700Y015160D02*
X024160Y015160D01*
X021160Y015928D02*
X020700Y015928D01*
X020160Y011774D02*
X019853Y011774D01*
X019700Y011621D01*
X019853Y011467D01*
X020160Y011467D01*
X020160Y011314D02*
X019700Y011314D01*
X019930Y011467D02*
X019930Y011774D01*
X020160Y011314D02*
X019700Y011007D01*
X020160Y011007D01*
X020160Y010853D02*
X020160Y010700D01*
X020160Y010777D02*
X019700Y010777D01*
X019700Y010853D02*
X019700Y010700D01*
X020700Y010660D02*
X021160Y010660D01*
X021007Y010814D01*
X021160Y010967D01*
X020700Y010967D01*
X020700Y011121D02*
X020853Y011274D01*
X020700Y011428D01*
X021160Y011428D01*
X021160Y011121D02*
X020700Y011121D01*
X020776Y010507D02*
X020930Y010507D01*
X021007Y010430D01*
X021007Y010200D01*
X021160Y010200D02*
X020700Y010200D01*
X020700Y010430D01*
X020776Y010507D01*
X021700Y010700D02*
X021700Y010853D01*
X021700Y010777D02*
X022160Y010777D01*
X022160Y010853D02*
X022160Y010700D01*
X022160Y011007D02*
X021700Y011007D01*
X022160Y011314D01*
X021700Y011314D01*
X021700Y011467D02*
X021700Y011698D01*
X021776Y011774D01*
X021853Y011774D01*
X021930Y011698D01*
X021930Y011467D01*
X022160Y011467D02*
X021700Y011467D01*
X021930Y011698D02*
X022007Y011774D01*
X022083Y011774D01*
X022160Y011698D01*
X022160Y011467D01*
X022700Y011351D02*
X022700Y011121D01*
X023160Y011121D01*
X023160Y011351D01*
X023083Y011428D01*
X022776Y011428D01*
X022700Y011351D01*
X022776Y010967D02*
X022700Y010891D01*
X022700Y010660D01*
X023160Y010660D01*
X023160Y010891D01*
X023083Y010967D01*
X022776Y010967D01*
X022700Y010507D02*
X023007Y010507D01*
X023160Y010353D01*
X023007Y010200D01*
X022700Y010200D01*
X023700Y010277D02*
X023776Y010200D01*
X024083Y010200D01*
X024160Y010277D01*
X024160Y010430D01*
X024083Y010507D01*
X023930Y010507D01*
X023930Y010353D01*
X023776Y010507D02*
X023700Y010430D01*
X023700Y010277D01*
X023700Y010660D02*
X024160Y010967D01*
X023700Y010967D01*
X023700Y011121D02*
X023700Y011351D01*
X023776Y011428D01*
X024083Y011428D01*
X024160Y011351D01*
X024160Y011121D01*
X023700Y011121D01*
X023700Y010660D02*
X024160Y010660D01*
D11*
X002381Y009400D02*
X002381Y004991D01*
X002774Y004991D01*
X002774Y009400D01*
X005334Y009400D01*
X005334Y004991D01*
X002774Y004991D01*
X007460Y005334D02*
X007460Y002774D01*
X011869Y002774D01*
X011869Y002381D01*
X007460Y002381D01*
X007460Y002774D01*
X007460Y005334D02*
X011869Y005334D01*
X011869Y002774D01*
X011960Y002774D02*
X016369Y002774D01*
X016369Y002381D01*
X011960Y002381D01*
X011960Y002774D01*
X011960Y005334D01*
X016369Y005334D01*
X016369Y002774D01*
X016460Y002774D02*
X020869Y002774D01*
X020869Y002381D01*
X016460Y002381D01*
X016460Y002774D01*
X016460Y005334D01*
X020869Y005334D01*
X020869Y002774D01*
X020960Y002774D02*
X025369Y002774D01*
X025369Y002381D01*
X020960Y002381D01*
X020960Y002774D01*
X020960Y005334D01*
X025369Y005334D01*
X025369Y002774D01*
X027526Y004960D02*
X030086Y004960D01*
X030086Y009369D01*
X030479Y009369D01*
X030479Y004960D01*
X030086Y004960D01*
X027526Y004960D02*
X027526Y009369D01*
X030086Y009369D01*
X030086Y009460D02*
X030086Y013869D01*
X030479Y013869D01*
X030479Y009460D01*
X030086Y009460D01*
X027526Y009460D01*
X027526Y013869D01*
X030086Y013869D01*
X030086Y013960D02*
X030086Y018369D01*
X030479Y018369D01*
X030479Y013960D01*
X030086Y013960D01*
X027526Y013960D01*
X027526Y018369D01*
X030086Y018369D01*
X005334Y018400D02*
X005334Y013991D01*
X002774Y013991D01*
X002774Y018400D01*
X005334Y018400D01*
X002774Y018400D02*
X002381Y018400D01*
X002381Y013991D01*
X002774Y013991D01*
X002774Y013900D02*
X002381Y013900D01*
X002381Y009491D01*
X002774Y009491D01*
X002774Y013900D01*
X005334Y013900D01*
X005334Y009491D01*
X002774Y009491D01*
X002774Y009400D02*
X002381Y009400D01*
D12*
X009180Y008430D02*
X009180Y007930D01*
X009430Y007680D01*
X009930Y007680D01*
X010180Y007930D01*
X010430Y007680D01*
X010930Y007680D01*
X011180Y007930D01*
X011180Y008430D01*
X010930Y008680D01*
X010430Y008680D01*
X010180Y008430D01*
X010180Y007930D01*
X010180Y008430D02*
X009930Y008680D01*
X009430Y008680D01*
X009180Y008430D01*
X011180Y008430D02*
X011430Y008680D01*
X011930Y008680D01*
X012180Y008430D01*
X012430Y008680D01*
X012930Y008680D01*
X013180Y008430D01*
X013430Y008680D01*
X013930Y008680D01*
X014180Y008430D01*
X014180Y007930D01*
X013930Y007680D01*
X013430Y007680D01*
X013180Y007930D01*
X012930Y007680D01*
X012430Y007680D01*
X012180Y007930D01*
X011930Y007680D01*
X011430Y007680D01*
X011180Y007930D01*
X012180Y007930D02*
X012180Y008430D01*
X013180Y008430D02*
X013180Y007930D01*
X014180Y007930D02*
X014430Y007680D01*
X014930Y007680D01*
X015180Y007930D01*
X015430Y007680D01*
X015930Y007680D01*
X016180Y007930D01*
X016430Y007680D01*
X016930Y007680D01*
X017180Y007930D01*
X017180Y008430D01*
X016930Y008680D01*
X016430Y008680D01*
X016180Y008430D01*
X016180Y007930D01*
X016180Y008430D02*
X015930Y008680D01*
X015430Y008680D01*
X015180Y008430D01*
X015180Y007930D01*
X015180Y008430D02*
X014930Y008680D01*
X014430Y008680D01*
X014180Y008430D01*
X017180Y008430D02*
X017430Y008680D01*
X017930Y008680D01*
X018180Y008430D01*
X018430Y008680D01*
X018930Y008680D01*
X019180Y008430D01*
X019430Y008680D01*
X019930Y008680D01*
X020180Y008430D01*
X020180Y007930D01*
X019930Y007680D01*
X019430Y007680D01*
X019180Y007930D01*
X018930Y007680D01*
X018430Y007680D01*
X018180Y007930D01*
X017930Y007680D01*
X017430Y007680D01*
X017180Y007930D01*
X018180Y007930D02*
X018180Y008430D01*
X019180Y008430D02*
X019180Y007930D01*
X020180Y007930D02*
X020430Y007680D01*
X020930Y007680D01*
X021180Y007930D01*
X021430Y007680D01*
X021930Y007680D01*
X022180Y007930D01*
X022430Y007680D01*
X022930Y007680D01*
X023180Y007930D01*
X023430Y007680D01*
X023930Y007680D01*
X024180Y007930D01*
X024180Y008430D01*
X023930Y008680D01*
X023430Y008680D01*
X023180Y008430D01*
X023180Y007930D01*
X023180Y008430D02*
X022930Y008680D01*
X022430Y008680D01*
X022180Y008430D01*
X022180Y007930D01*
X022180Y008430D02*
X021930Y008680D01*
X021430Y008680D01*
X021180Y008430D01*
X021180Y007930D01*
X021180Y008430D02*
X020930Y008680D01*
X020430Y008680D01*
X020180Y008430D01*
X019930Y012180D02*
X019430Y012180D01*
X019180Y012430D01*
X019180Y012930D01*
X019430Y013180D01*
X019930Y013180D01*
X020180Y012930D01*
X020430Y013180D01*
X020930Y013180D01*
X021180Y012930D01*
X021180Y012430D01*
X020930Y012180D01*
X020430Y012180D01*
X020180Y012430D01*
X019930Y012180D01*
X020180Y012430D02*
X020180Y012930D01*
X021180Y012930D02*
X021430Y013180D01*
X021930Y013180D01*
X022180Y012930D01*
X022430Y013180D01*
X022930Y013180D01*
X023180Y012930D01*
X023430Y013180D01*
X023930Y013180D01*
X024180Y012930D01*
X024180Y012430D01*
X023930Y012180D01*
X023430Y012180D01*
X023180Y012430D01*
X022930Y012180D01*
X022430Y012180D01*
X022180Y012430D01*
X021930Y012180D01*
X021430Y012180D01*
X021180Y012430D01*
X022180Y012430D02*
X022180Y012930D01*
X023180Y012930D02*
X023180Y012430D01*
X022930Y016680D02*
X022430Y016680D01*
X022180Y016930D01*
X021930Y016680D01*
X021430Y016680D01*
X021180Y016930D01*
X020930Y016680D01*
X020430Y016680D01*
X020180Y016930D01*
X019930Y016680D01*
X019430Y016680D01*
X019180Y016930D01*
X019180Y017430D01*
X019430Y017680D01*
X019930Y017680D01*
X020180Y017430D01*
X020430Y017680D01*
X020930Y017680D01*
X021180Y017430D01*
X021180Y016930D01*
X021180Y017430D02*
X021430Y017680D01*
X021930Y017680D01*
X022180Y017430D01*
X022430Y017680D01*
X022930Y017680D01*
X023180Y017430D01*
X023430Y017680D01*
X023930Y017680D01*
X024180Y017430D01*
X024180Y016930D01*
X023930Y016680D01*
X023430Y016680D01*
X023180Y016930D01*
X022930Y016680D01*
X023180Y016930D02*
X023180Y017430D01*
X022180Y017430D02*
X022180Y016930D01*
X020180Y016930D02*
X020180Y017430D01*
X014180Y017430D02*
X014180Y016930D01*
X013930Y016680D01*
X013430Y016680D01*
X013180Y016930D01*
X012930Y016680D01*
X012430Y016680D01*
X012180Y016930D01*
X011930Y016680D01*
X011430Y016680D01*
X011180Y016930D01*
X010930Y016680D01*
X010430Y016680D01*
X010180Y016930D01*
X009930Y016680D01*
X009430Y016680D01*
X009180Y016930D01*
X009180Y017430D01*
X009430Y017680D01*
X009930Y017680D01*
X010180Y017430D01*
X010430Y017680D01*
X010930Y017680D01*
X011180Y017430D01*
X011180Y016930D01*
X011180Y017430D02*
X011430Y017680D01*
X011930Y017680D01*
X012180Y017430D01*
X012430Y017680D01*
X012930Y017680D01*
X013180Y017430D01*
X013430Y017680D01*
X013930Y017680D01*
X014180Y017430D01*
X013180Y017430D02*
X013180Y016930D01*
X012180Y016930D02*
X012180Y017430D01*
X010180Y017430D02*
X010180Y016930D01*
X009930Y013180D02*
X009430Y013180D01*
X009180Y012930D01*
X009180Y012430D01*
X009430Y012180D01*
X009930Y012180D01*
X010180Y012430D01*
X010430Y012180D01*
X010930Y012180D01*
X011180Y012430D01*
X011180Y012930D01*
X010930Y013180D01*
X010430Y013180D01*
X010180Y012930D01*
X010180Y012430D01*
X010180Y012930D02*
X009930Y013180D01*
X011180Y012930D02*
X011430Y013180D01*
X011930Y013180D01*
X012180Y012930D01*
X012430Y013180D01*
X012930Y013180D01*
X013180Y012930D01*
X013430Y013180D01*
X013930Y013180D01*
X014180Y012930D01*
X014180Y012430D01*
X013930Y012180D01*
X013430Y012180D01*
X013180Y012430D01*
X012930Y012180D01*
X012430Y012180D01*
X012180Y012430D01*
X011930Y012180D01*
X011430Y012180D01*
X011180Y012430D01*
X012180Y012430D02*
X012180Y012930D01*
X013180Y012930D02*
X013180Y012430D01*
M02*
