%
M48
M72
T01C0.0200
T02C0.0400
T03C0.0512
T04C0.0787
%
T01
X12180Y9680
X11680Y10180
T02
X11680Y8180
X10680Y8180
X9680Y8180
X12680Y8180
X13680Y8180
X14680Y8180
X15680Y8180
X16680Y8180
X17680Y8180
X18680Y8180
X19680Y8180
X20680Y8180
X21680Y8180
X22680Y8180
X23680Y8180
X23680Y12680
X22680Y12680
X21680Y12680
X20680Y12680
X19680Y12680
X13680Y12680
X12680Y12680
X11680Y12680
X10680Y12680
X9680Y12680
X9680Y17180
X10680Y17180
X11680Y17180
X12680Y17180
X13680Y17180
X19680Y17180
X20680Y17180
X21680Y17180
X22680Y17180
X23680Y17180
T03
X3680Y6211
X3680Y8180
X3680Y10711
X3680Y12680
X3680Y15211
X3680Y17180
X8680Y3680
X10649Y3680
X13180Y3680
X15149Y3680
X17680Y3680
X19649Y3680
X22180Y3680
X24149Y3680
X29180Y6180
X29180Y8149
X29180Y10680
X29180Y12649
X29180Y15180
X29180Y17149
T04
X25680Y18180
X25680Y6180
X6680Y6180
X6680Y18180
M30
