G75*
%MOIN*%
%OFA0B0*%
%FSLAX24Y24*%
%IPPOS*%
%LPD*%
%AMOC8*
5,1,8,0,0,1.08239X$1,22.5*
%
%ADD10C,0.0867*%
%ADD11R,0.0880X0.0880*%
%ADD12C,0.0880*%
%ADD13C,0.0680*%
%ADD14C,0.0440*%
D10*
X006680Y006180D03*
X006680Y018180D03*
X025680Y018180D03*
X025680Y006180D03*
D11*
X022180Y003680D03*
X017680Y003680D03*
X013180Y003680D03*
X008680Y003680D03*
X003680Y008180D03*
X003680Y012680D03*
X003680Y017180D03*
X029180Y015180D03*
X029180Y010680D03*
X029180Y006180D03*
D12*
X003680Y006211D03*
X003680Y010711D03*
X003680Y015211D03*
X010649Y003680D03*
X015149Y003680D03*
X019649Y003680D03*
X024149Y003680D03*
X029180Y008149D03*
X029180Y012649D03*
X029180Y017149D03*
D13*
X023680Y016880D02*
X023680Y017480D01*
X022680Y017480D02*
X022680Y016880D01*
X021680Y016880D02*
X021680Y017480D01*
X020680Y017480D02*
X020680Y016880D01*
X019680Y016880D02*
X019680Y017480D01*
X013680Y017480D02*
X013680Y016880D01*
X012680Y016880D02*
X012680Y017480D01*
X011680Y017480D02*
X011680Y016880D01*
X010680Y016880D02*
X010680Y017480D01*
X009680Y017480D02*
X009680Y016880D01*
X009680Y012980D02*
X009680Y012380D01*
X010680Y012380D02*
X010680Y012980D01*
X011680Y012980D02*
X011680Y012380D01*
X012680Y012380D02*
X012680Y012980D01*
X013680Y012980D02*
X013680Y012380D01*
X013680Y008480D02*
X013680Y007880D01*
X012680Y007880D02*
X012680Y008480D01*
X011680Y008480D02*
X011680Y007880D01*
X010680Y007880D02*
X010680Y008480D01*
X009680Y008480D02*
X009680Y007880D01*
X014680Y007880D02*
X014680Y008480D01*
X015680Y008480D02*
X015680Y007880D01*
X016680Y007880D02*
X016680Y008480D01*
X017680Y008480D02*
X017680Y007880D01*
X018680Y007880D02*
X018680Y008480D01*
X019680Y008480D02*
X019680Y007880D01*
X020680Y007880D02*
X020680Y008480D01*
X021680Y008480D02*
X021680Y007880D01*
X022680Y007880D02*
X022680Y008480D01*
X023680Y008480D02*
X023680Y007880D01*
X023680Y012380D02*
X023680Y012980D01*
X022680Y012980D02*
X022680Y012380D01*
X021680Y012380D02*
X021680Y012980D01*
X020680Y012980D02*
X020680Y012380D01*
X019680Y012380D02*
X019680Y012980D01*
D14*
X012180Y009680D03*
X011680Y010180D03*
M02*
