G75*
%MOIN*%
%OFA0B0*%
%FSLAX24Y24*%
%IPPOS*%
%LPD*%
%AMOC8*
5,1,8,0,0,1.08239X$1,22.5*
%
%ADD10C,0.0000*%
%ADD11R,0.0800X0.0800*%
%ADD12C,0.0800*%
%ADD13C,0.0600*%
%ADD14C,0.0160*%
%ADD15C,0.0150*%
%ADD16C,0.0360*%
D10*
X002180Y002180D02*
X002180Y019676D01*
X030550Y019676D01*
X030550Y002180D01*
X002180Y002180D01*
X006286Y006180D02*
X006288Y006219D01*
X006294Y006258D01*
X006304Y006296D01*
X006317Y006333D01*
X006334Y006368D01*
X006354Y006402D01*
X006378Y006433D01*
X006405Y006462D01*
X006434Y006488D01*
X006466Y006511D01*
X006500Y006531D01*
X006536Y006547D01*
X006573Y006559D01*
X006612Y006568D01*
X006651Y006573D01*
X006690Y006574D01*
X006729Y006571D01*
X006768Y006564D01*
X006805Y006553D01*
X006842Y006539D01*
X006877Y006521D01*
X006910Y006500D01*
X006941Y006475D01*
X006969Y006448D01*
X006994Y006418D01*
X007016Y006385D01*
X007035Y006351D01*
X007050Y006315D01*
X007062Y006277D01*
X007070Y006239D01*
X007074Y006200D01*
X007074Y006160D01*
X007070Y006121D01*
X007062Y006083D01*
X007050Y006045D01*
X007035Y006009D01*
X007016Y005975D01*
X006994Y005942D01*
X006969Y005912D01*
X006941Y005885D01*
X006910Y005860D01*
X006877Y005839D01*
X006842Y005821D01*
X006805Y005807D01*
X006768Y005796D01*
X006729Y005789D01*
X006690Y005786D01*
X006651Y005787D01*
X006612Y005792D01*
X006573Y005801D01*
X006536Y005813D01*
X006500Y005829D01*
X006466Y005849D01*
X006434Y005872D01*
X006405Y005898D01*
X006378Y005927D01*
X006354Y005958D01*
X006334Y005992D01*
X006317Y006027D01*
X006304Y006064D01*
X006294Y006102D01*
X006288Y006141D01*
X006286Y006180D01*
X006286Y018180D02*
X006288Y018219D01*
X006294Y018258D01*
X006304Y018296D01*
X006317Y018333D01*
X006334Y018368D01*
X006354Y018402D01*
X006378Y018433D01*
X006405Y018462D01*
X006434Y018488D01*
X006466Y018511D01*
X006500Y018531D01*
X006536Y018547D01*
X006573Y018559D01*
X006612Y018568D01*
X006651Y018573D01*
X006690Y018574D01*
X006729Y018571D01*
X006768Y018564D01*
X006805Y018553D01*
X006842Y018539D01*
X006877Y018521D01*
X006910Y018500D01*
X006941Y018475D01*
X006969Y018448D01*
X006994Y018418D01*
X007016Y018385D01*
X007035Y018351D01*
X007050Y018315D01*
X007062Y018277D01*
X007070Y018239D01*
X007074Y018200D01*
X007074Y018160D01*
X007070Y018121D01*
X007062Y018083D01*
X007050Y018045D01*
X007035Y018009D01*
X007016Y017975D01*
X006994Y017942D01*
X006969Y017912D01*
X006941Y017885D01*
X006910Y017860D01*
X006877Y017839D01*
X006842Y017821D01*
X006805Y017807D01*
X006768Y017796D01*
X006729Y017789D01*
X006690Y017786D01*
X006651Y017787D01*
X006612Y017792D01*
X006573Y017801D01*
X006536Y017813D01*
X006500Y017829D01*
X006466Y017849D01*
X006434Y017872D01*
X006405Y017898D01*
X006378Y017927D01*
X006354Y017958D01*
X006334Y017992D01*
X006317Y018027D01*
X006304Y018064D01*
X006294Y018102D01*
X006288Y018141D01*
X006286Y018180D01*
X025286Y018180D02*
X025288Y018219D01*
X025294Y018258D01*
X025304Y018296D01*
X025317Y018333D01*
X025334Y018368D01*
X025354Y018402D01*
X025378Y018433D01*
X025405Y018462D01*
X025434Y018488D01*
X025466Y018511D01*
X025500Y018531D01*
X025536Y018547D01*
X025573Y018559D01*
X025612Y018568D01*
X025651Y018573D01*
X025690Y018574D01*
X025729Y018571D01*
X025768Y018564D01*
X025805Y018553D01*
X025842Y018539D01*
X025877Y018521D01*
X025910Y018500D01*
X025941Y018475D01*
X025969Y018448D01*
X025994Y018418D01*
X026016Y018385D01*
X026035Y018351D01*
X026050Y018315D01*
X026062Y018277D01*
X026070Y018239D01*
X026074Y018200D01*
X026074Y018160D01*
X026070Y018121D01*
X026062Y018083D01*
X026050Y018045D01*
X026035Y018009D01*
X026016Y017975D01*
X025994Y017942D01*
X025969Y017912D01*
X025941Y017885D01*
X025910Y017860D01*
X025877Y017839D01*
X025842Y017821D01*
X025805Y017807D01*
X025768Y017796D01*
X025729Y017789D01*
X025690Y017786D01*
X025651Y017787D01*
X025612Y017792D01*
X025573Y017801D01*
X025536Y017813D01*
X025500Y017829D01*
X025466Y017849D01*
X025434Y017872D01*
X025405Y017898D01*
X025378Y017927D01*
X025354Y017958D01*
X025334Y017992D01*
X025317Y018027D01*
X025304Y018064D01*
X025294Y018102D01*
X025288Y018141D01*
X025286Y018180D01*
X025286Y006180D02*
X025288Y006219D01*
X025294Y006258D01*
X025304Y006296D01*
X025317Y006333D01*
X025334Y006368D01*
X025354Y006402D01*
X025378Y006433D01*
X025405Y006462D01*
X025434Y006488D01*
X025466Y006511D01*
X025500Y006531D01*
X025536Y006547D01*
X025573Y006559D01*
X025612Y006568D01*
X025651Y006573D01*
X025690Y006574D01*
X025729Y006571D01*
X025768Y006564D01*
X025805Y006553D01*
X025842Y006539D01*
X025877Y006521D01*
X025910Y006500D01*
X025941Y006475D01*
X025969Y006448D01*
X025994Y006418D01*
X026016Y006385D01*
X026035Y006351D01*
X026050Y006315D01*
X026062Y006277D01*
X026070Y006239D01*
X026074Y006200D01*
X026074Y006160D01*
X026070Y006121D01*
X026062Y006083D01*
X026050Y006045D01*
X026035Y006009D01*
X026016Y005975D01*
X025994Y005942D01*
X025969Y005912D01*
X025941Y005885D01*
X025910Y005860D01*
X025877Y005839D01*
X025842Y005821D01*
X025805Y005807D01*
X025768Y005796D01*
X025729Y005789D01*
X025690Y005786D01*
X025651Y005787D01*
X025612Y005792D01*
X025573Y005801D01*
X025536Y005813D01*
X025500Y005829D01*
X025466Y005849D01*
X025434Y005872D01*
X025405Y005898D01*
X025378Y005927D01*
X025354Y005958D01*
X025334Y005992D01*
X025317Y006027D01*
X025304Y006064D01*
X025294Y006102D01*
X025288Y006141D01*
X025286Y006180D01*
D11*
X022180Y003680D03*
X017680Y003680D03*
X013180Y003680D03*
X008680Y003680D03*
X003680Y008180D03*
X003680Y012680D03*
X003680Y017180D03*
X029180Y015180D03*
X029180Y010680D03*
X029180Y006180D03*
D12*
X029180Y008149D03*
X029180Y012649D03*
X029180Y017149D03*
X024149Y003680D03*
X019649Y003680D03*
X015149Y003680D03*
X010649Y003680D03*
X003680Y006211D03*
X003680Y010711D03*
X003680Y015211D03*
D13*
X009680Y016880D02*
X009680Y017480D01*
X010680Y017480D02*
X010680Y016880D01*
X011680Y016880D02*
X011680Y017480D01*
X012680Y017480D02*
X012680Y016880D01*
X013680Y016880D02*
X013680Y017480D01*
X019680Y017480D02*
X019680Y016880D01*
X020680Y016880D02*
X020680Y017480D01*
X021680Y017480D02*
X021680Y016880D01*
X022680Y016880D02*
X022680Y017480D01*
X023680Y017480D02*
X023680Y016880D01*
X023680Y012980D02*
X023680Y012380D01*
X022680Y012380D02*
X022680Y012980D01*
X021680Y012980D02*
X021680Y012380D01*
X020680Y012380D02*
X020680Y012980D01*
X019680Y012980D02*
X019680Y012380D01*
X019680Y008480D02*
X019680Y007880D01*
X018680Y007880D02*
X018680Y008480D01*
X017680Y008480D02*
X017680Y007880D01*
X016680Y007880D02*
X016680Y008480D01*
X015680Y008480D02*
X015680Y007880D01*
X014680Y007880D02*
X014680Y008480D01*
X013680Y008480D02*
X013680Y007880D01*
X012680Y007880D02*
X012680Y008480D01*
X011680Y008480D02*
X011680Y007880D01*
X010680Y007880D02*
X010680Y008480D01*
X009680Y008480D02*
X009680Y007880D01*
X009680Y012380D02*
X009680Y012980D01*
X010680Y012980D02*
X010680Y012380D01*
X011680Y012380D02*
X011680Y012980D01*
X012680Y012980D02*
X012680Y012380D01*
X013680Y012380D02*
X013680Y012980D01*
X020680Y008480D02*
X020680Y007880D01*
X021680Y007880D02*
X021680Y008480D01*
X022680Y008480D02*
X022680Y007880D01*
X023680Y007880D02*
X023680Y008480D01*
D14*
X023660Y008507D02*
X023700Y008507D01*
X023700Y008349D02*
X023660Y008349D01*
X023660Y008200D02*
X023660Y008960D01*
X023642Y008960D01*
X023568Y008948D01*
X023496Y008925D01*
X023428Y008891D01*
X023367Y008846D01*
X023314Y008793D01*
X023296Y008769D01*
X023256Y008865D01*
X023065Y009056D01*
X022815Y009160D01*
X022545Y009160D01*
X022295Y009056D01*
X022180Y008942D01*
X022065Y009056D01*
X021815Y009160D01*
X021545Y009160D01*
X021295Y009056D01*
X021180Y008942D01*
X021065Y009056D01*
X020815Y009160D01*
X020545Y009160D01*
X020295Y009056D01*
X020180Y008942D01*
X020065Y009056D01*
X019815Y009160D01*
X019545Y009160D01*
X019295Y009056D01*
X019180Y008942D01*
X019135Y008987D01*
X019135Y011963D01*
X019295Y011804D01*
X019545Y011700D01*
X019815Y011700D01*
X020065Y011804D01*
X020180Y011918D01*
X020295Y011804D01*
X020545Y011700D01*
X020815Y011700D01*
X021065Y011804D01*
X021180Y011918D01*
X021295Y011804D01*
X021545Y011700D01*
X021815Y011700D01*
X022065Y011804D01*
X022180Y011918D01*
X022295Y011804D01*
X022545Y011700D01*
X022815Y011700D01*
X023065Y011804D01*
X023180Y011918D01*
X023295Y011804D01*
X023545Y011700D01*
X023815Y011700D01*
X024065Y011804D01*
X024256Y011995D01*
X024360Y012245D01*
X024360Y013115D01*
X024256Y013365D01*
X024065Y013556D01*
X023815Y013660D01*
X023545Y013660D01*
X023295Y013556D01*
X023180Y013442D01*
X023135Y013487D01*
X023135Y016373D01*
X023180Y016418D01*
X023295Y016304D01*
X023545Y016200D01*
X023815Y016200D01*
X024065Y016304D01*
X024256Y016495D01*
X024360Y016745D01*
X024360Y017615D01*
X024256Y017865D01*
X024065Y018056D01*
X023815Y018160D01*
X023545Y018160D01*
X023295Y018056D01*
X023180Y017942D01*
X023065Y018056D01*
X022815Y018160D01*
X022545Y018160D01*
X022295Y018056D01*
X022180Y017942D01*
X022065Y018056D01*
X021815Y018160D01*
X021545Y018160D01*
X021295Y018056D01*
X021180Y017942D01*
X021065Y018056D01*
X020815Y018160D01*
X020545Y018160D01*
X020295Y018056D01*
X020180Y017942D01*
X020065Y018056D01*
X019815Y018160D01*
X019545Y018160D01*
X019295Y018056D01*
X019104Y017865D01*
X019000Y017615D01*
X019000Y017598D01*
X018922Y017566D01*
X018794Y017438D01*
X016294Y014938D01*
X016225Y014771D01*
X016225Y008987D01*
X016180Y008942D01*
X016135Y008987D01*
X016135Y009271D01*
X016066Y009438D01*
X013803Y011700D01*
X013815Y011700D01*
X014065Y011804D01*
X014256Y011995D01*
X014360Y012245D01*
X014360Y013115D01*
X014256Y013365D01*
X014135Y013487D01*
X014135Y016373D01*
X014256Y016495D01*
X014360Y016745D01*
X014360Y017615D01*
X014256Y017865D01*
X014065Y018056D01*
X013815Y018160D01*
X013545Y018160D01*
X013295Y018056D01*
X013180Y017942D01*
X013065Y018056D01*
X012815Y018160D01*
X012545Y018160D01*
X012295Y018056D01*
X012180Y017942D01*
X012065Y018056D01*
X011815Y018160D01*
X011545Y018160D01*
X011295Y018056D01*
X011180Y017942D01*
X011140Y017982D01*
X011140Y018771D01*
X011070Y018941D01*
X010941Y019070D01*
X010771Y019140D01*
X009588Y019140D01*
X009419Y019070D01*
X006790Y016441D01*
X006720Y016271D01*
X006720Y007588D01*
X006790Y007419D01*
X006919Y007290D01*
X008419Y005790D01*
X008588Y005720D01*
X018771Y005720D01*
X018941Y005790D01*
X019070Y005919D01*
X020407Y007257D01*
X020545Y007200D01*
X020815Y007200D01*
X021065Y007304D01*
X021180Y007418D01*
X021295Y007304D01*
X021545Y007200D01*
X021815Y007200D01*
X022065Y007304D01*
X022180Y007418D01*
X022295Y007304D01*
X022545Y007200D01*
X022815Y007200D01*
X023065Y007304D01*
X023256Y007495D01*
X023296Y007591D01*
X023314Y007567D01*
X023367Y007514D01*
X023428Y007469D01*
X023496Y007435D01*
X023568Y007412D01*
X023642Y007400D01*
X023660Y007400D01*
X023660Y008160D01*
X023700Y008160D01*
X023700Y008200D01*
X023660Y008200D01*
X023700Y008200D02*
X023700Y008960D01*
X023718Y008960D01*
X023792Y008948D01*
X023864Y008925D01*
X023932Y008891D01*
X023993Y008846D01*
X024046Y008793D01*
X024091Y008732D01*
X024125Y008664D01*
X024148Y008592D01*
X024160Y008518D01*
X024160Y008200D01*
X023700Y008200D01*
X023700Y008190D02*
X028400Y008190D01*
X028400Y008304D02*
X028400Y007993D01*
X028519Y007707D01*
X028738Y007487D01*
X029025Y007369D01*
X029335Y007369D01*
X029622Y007487D01*
X029841Y007707D01*
X029960Y007993D01*
X029960Y008304D01*
X029841Y008590D01*
X029622Y008810D01*
X029335Y008929D01*
X029025Y008929D01*
X028738Y008810D01*
X028519Y008590D01*
X028400Y008304D01*
X028419Y008349D02*
X024160Y008349D01*
X024160Y008507D02*
X028484Y008507D01*
X028594Y008666D02*
X024124Y008666D01*
X024015Y008824D02*
X028773Y008824D01*
X029587Y008824D02*
X030070Y008824D01*
X030070Y008666D02*
X029766Y008666D01*
X029876Y008507D02*
X030070Y008507D01*
X030070Y008349D02*
X029941Y008349D01*
X029960Y008190D02*
X030070Y008190D01*
X030070Y008032D02*
X029960Y008032D01*
X029910Y007873D02*
X030070Y007873D01*
X030070Y007715D02*
X029845Y007715D01*
X029691Y007556D02*
X030070Y007556D01*
X030070Y007398D02*
X029405Y007398D01*
X028955Y007398D02*
X023159Y007398D01*
X023282Y007556D02*
X023325Y007556D01*
X023660Y007556D02*
X023700Y007556D01*
X023700Y007400D02*
X023718Y007400D01*
X023792Y007412D01*
X023864Y007435D01*
X023932Y007469D01*
X023993Y007514D01*
X024046Y007567D01*
X024091Y007628D01*
X024125Y007696D01*
X024148Y007768D01*
X024160Y007842D01*
X024160Y008160D01*
X023700Y008160D01*
X023700Y007400D01*
X024035Y007556D02*
X028669Y007556D01*
X028515Y007715D02*
X024131Y007715D01*
X024160Y007873D02*
X028450Y007873D01*
X028400Y008032D02*
X024160Y008032D01*
X023700Y008032D02*
X023660Y008032D01*
X023660Y007873D02*
X023700Y007873D01*
X023700Y007715D02*
X023660Y007715D01*
X022909Y007239D02*
X030070Y007239D01*
X030070Y007081D02*
X020231Y007081D01*
X020390Y007239D02*
X020451Y007239D01*
X020909Y007239D02*
X021451Y007239D01*
X021201Y007398D02*
X021159Y007398D01*
X021909Y007239D02*
X022451Y007239D01*
X022201Y007398D02*
X022159Y007398D01*
X020680Y008180D02*
X018680Y006180D01*
X008680Y006180D01*
X007180Y007680D01*
X007180Y016180D01*
X009680Y018680D01*
X010680Y018680D01*
X010680Y017180D01*
X011140Y018017D02*
X011255Y018017D01*
X011140Y018176D02*
X024806Y018176D01*
X024806Y018334D02*
X011140Y018334D01*
X011140Y018493D02*
X024864Y018493D01*
X024806Y018354D02*
X024806Y018006D01*
X024939Y017685D01*
X025185Y017439D01*
X025506Y017306D01*
X025854Y017306D01*
X026175Y017439D01*
X026421Y017685D01*
X026554Y018006D01*
X026554Y018354D01*
X026421Y018675D01*
X026175Y018921D01*
X025854Y019054D01*
X025506Y019054D01*
X025185Y018921D01*
X024939Y018675D01*
X024806Y018354D01*
X024806Y018017D02*
X024105Y018017D01*
X024259Y017859D02*
X024867Y017859D01*
X024933Y017700D02*
X024325Y017700D01*
X024360Y017542D02*
X025083Y017542D01*
X025321Y017383D02*
X024360Y017383D01*
X024360Y017225D02*
X028400Y017225D01*
X028400Y017304D02*
X028400Y016993D01*
X028519Y016707D01*
X028738Y016487D01*
X029025Y016369D01*
X029335Y016369D01*
X029622Y016487D01*
X029841Y016707D01*
X029960Y016993D01*
X029960Y017304D01*
X029841Y017590D01*
X029622Y017810D01*
X029335Y017929D01*
X029025Y017929D01*
X028738Y017810D01*
X028519Y017590D01*
X028400Y017304D01*
X028433Y017383D02*
X026039Y017383D01*
X026277Y017542D02*
X028499Y017542D01*
X028628Y017700D02*
X026427Y017700D01*
X026493Y017859D02*
X028856Y017859D01*
X029504Y017859D02*
X030070Y017859D01*
X030070Y018017D02*
X026554Y018017D01*
X026554Y018176D02*
X030070Y018176D01*
X030070Y018334D02*
X026554Y018334D01*
X026496Y018493D02*
X030070Y018493D01*
X030070Y018651D02*
X026431Y018651D01*
X026286Y018810D02*
X030070Y018810D01*
X030070Y018968D02*
X026061Y018968D01*
X025299Y018968D02*
X011043Y018968D01*
X011124Y018810D02*
X025074Y018810D01*
X024929Y018651D02*
X011140Y018651D01*
X010804Y019127D02*
X030070Y019127D01*
X030070Y019196D02*
X002660Y019196D01*
X002660Y002660D01*
X030070Y002660D01*
X030070Y019196D01*
X030070Y017700D02*
X029732Y017700D01*
X029861Y017542D02*
X030070Y017542D01*
X030070Y017383D02*
X029927Y017383D01*
X029960Y017225D02*
X030070Y017225D01*
X030070Y017066D02*
X029960Y017066D01*
X029924Y016908D02*
X030070Y016908D01*
X030070Y016749D02*
X029859Y016749D01*
X029725Y016591D02*
X030070Y016591D01*
X030070Y016432D02*
X029489Y016432D01*
X030070Y016274D02*
X023993Y016274D01*
X024194Y016432D02*
X028871Y016432D01*
X028635Y016591D02*
X024296Y016591D01*
X024360Y016749D02*
X028501Y016749D01*
X028436Y016908D02*
X024360Y016908D01*
X024360Y017066D02*
X028400Y017066D01*
X028756Y015760D02*
X028711Y015748D01*
X028669Y015724D01*
X028636Y015691D01*
X028612Y015649D01*
X028600Y015604D01*
X028600Y015228D01*
X029132Y015228D01*
X029132Y015760D01*
X028756Y015760D01*
X028610Y015640D02*
X023135Y015640D01*
X023135Y015798D02*
X030070Y015798D01*
X030070Y015640D02*
X029750Y015640D01*
X029748Y015649D02*
X029724Y015691D01*
X029691Y015724D01*
X029649Y015748D01*
X029604Y015760D01*
X029228Y015760D01*
X029228Y015228D01*
X029132Y015228D01*
X029132Y015132D01*
X029228Y015132D01*
X029228Y015228D01*
X029760Y015228D01*
X029760Y015604D01*
X029748Y015649D01*
X029760Y015481D02*
X030070Y015481D01*
X030070Y015323D02*
X029760Y015323D01*
X029760Y015132D02*
X029228Y015132D01*
X029228Y014600D01*
X029604Y014600D01*
X029649Y014612D01*
X029691Y014636D01*
X029724Y014669D01*
X029748Y014711D01*
X029760Y014756D01*
X029760Y015132D01*
X029760Y015006D02*
X030070Y015006D01*
X030070Y015164D02*
X029228Y015164D01*
X029132Y015164D02*
X023135Y015164D01*
X023135Y015006D02*
X028600Y015006D01*
X028600Y015132D02*
X028600Y014756D01*
X028612Y014711D01*
X028636Y014669D01*
X028669Y014636D01*
X028711Y014612D01*
X028756Y014600D01*
X029132Y014600D01*
X029132Y015132D01*
X028600Y015132D01*
X028600Y015323D02*
X023135Y015323D01*
X023135Y015481D02*
X028600Y015481D01*
X029132Y015481D02*
X029228Y015481D01*
X029228Y015323D02*
X029132Y015323D01*
X029132Y015640D02*
X029228Y015640D01*
X029228Y015006D02*
X029132Y015006D01*
X029132Y014847D02*
X029228Y014847D01*
X029228Y014689D02*
X029132Y014689D01*
X028625Y014689D02*
X023135Y014689D01*
X023135Y014847D02*
X028600Y014847D01*
X029735Y014689D02*
X030070Y014689D01*
X030070Y014847D02*
X029760Y014847D01*
X030070Y014530D02*
X023135Y014530D01*
X023135Y014372D02*
X030070Y014372D01*
X030070Y014213D02*
X023135Y014213D01*
X023135Y014055D02*
X030070Y014055D01*
X030070Y013896D02*
X023135Y013896D01*
X023135Y013738D02*
X030070Y013738D01*
X030070Y013579D02*
X024011Y013579D01*
X024201Y013421D02*
X029006Y013421D01*
X029025Y013429D02*
X028738Y013310D01*
X028519Y013090D01*
X028400Y012804D01*
X028400Y012493D01*
X028519Y012207D01*
X028738Y011987D01*
X029025Y011869D01*
X029335Y011869D01*
X029622Y011987D01*
X029841Y012207D01*
X029960Y012493D01*
X029960Y012804D01*
X029841Y013090D01*
X029622Y013310D01*
X029335Y013429D01*
X029025Y013429D01*
X029354Y013421D02*
X030070Y013421D01*
X030070Y013262D02*
X029670Y013262D01*
X029828Y013104D02*
X030070Y013104D01*
X030070Y012945D02*
X029901Y012945D01*
X029960Y012787D02*
X030070Y012787D01*
X030070Y012628D02*
X029960Y012628D01*
X029950Y012470D02*
X030070Y012470D01*
X030070Y012311D02*
X029884Y012311D01*
X029787Y012153D02*
X030070Y012153D01*
X030070Y011994D02*
X029629Y011994D01*
X030070Y011836D02*
X024097Y011836D01*
X024256Y011994D02*
X028731Y011994D01*
X028573Y012153D02*
X024322Y012153D01*
X024360Y012311D02*
X028476Y012311D01*
X028410Y012470D02*
X024360Y012470D01*
X024360Y012628D02*
X028400Y012628D01*
X028400Y012787D02*
X024360Y012787D01*
X024360Y012945D02*
X028459Y012945D01*
X028532Y013104D02*
X024360Y013104D01*
X024299Y013262D02*
X028690Y013262D01*
X030070Y011677D02*
X019135Y011677D01*
X019135Y011519D02*
X030070Y011519D01*
X030070Y011360D02*
X019135Y011360D01*
X019135Y011202D02*
X028647Y011202D01*
X028636Y011191D02*
X028612Y011149D01*
X028600Y011104D01*
X028600Y010728D01*
X029132Y010728D01*
X029132Y011260D01*
X028756Y011260D01*
X028711Y011248D01*
X028669Y011224D01*
X028636Y011191D01*
X028600Y011043D02*
X019135Y011043D01*
X019135Y010885D02*
X028600Y010885D01*
X028600Y010632D02*
X028600Y010256D01*
X028612Y010211D01*
X028636Y010169D01*
X028669Y010136D01*
X028711Y010112D01*
X028756Y010100D01*
X029132Y010100D01*
X029132Y010632D01*
X029228Y010632D01*
X029228Y010728D01*
X029132Y010728D01*
X029132Y010632D01*
X028600Y010632D01*
X028600Y010568D02*
X019135Y010568D01*
X019135Y010726D02*
X029132Y010726D01*
X029228Y010726D02*
X030070Y010726D01*
X030070Y010568D02*
X029760Y010568D01*
X029760Y010632D02*
X029228Y010632D01*
X029228Y010100D01*
X029604Y010100D01*
X029649Y010112D01*
X029691Y010136D01*
X029724Y010169D01*
X029748Y010211D01*
X029760Y010256D01*
X029760Y010632D01*
X029760Y010728D02*
X029760Y011104D01*
X029748Y011149D01*
X029724Y011191D01*
X029691Y011224D01*
X029649Y011248D01*
X029604Y011260D01*
X029228Y011260D01*
X029228Y010728D01*
X029760Y010728D01*
X029760Y010885D02*
X030070Y010885D01*
X030070Y011043D02*
X029760Y011043D01*
X029713Y011202D02*
X030070Y011202D01*
X029228Y011202D02*
X029132Y011202D01*
X029132Y011043D02*
X029228Y011043D01*
X029228Y010885D02*
X029132Y010885D01*
X029132Y010568D02*
X029228Y010568D01*
X029228Y010409D02*
X029132Y010409D01*
X029132Y010251D02*
X029228Y010251D01*
X029758Y010251D02*
X030070Y010251D01*
X030070Y010409D02*
X029760Y010409D01*
X030070Y010092D02*
X019135Y010092D01*
X019135Y009934D02*
X030070Y009934D01*
X030070Y009775D02*
X019135Y009775D01*
X019135Y009617D02*
X030070Y009617D01*
X030070Y009458D02*
X019135Y009458D01*
X019135Y009300D02*
X030070Y009300D01*
X030070Y009141D02*
X022861Y009141D01*
X023139Y008983D02*
X030070Y008983D01*
X028602Y010251D02*
X019135Y010251D01*
X019135Y010409D02*
X028600Y010409D01*
X026175Y006921D02*
X025854Y007054D01*
X025506Y007054D01*
X025185Y006921D01*
X024939Y006675D01*
X024806Y006354D01*
X024806Y006006D01*
X024939Y005685D01*
X025185Y005439D01*
X025506Y005306D01*
X025854Y005306D01*
X026175Y005439D01*
X026421Y005685D01*
X026554Y006006D01*
X026554Y006354D01*
X026421Y006675D01*
X026175Y006921D01*
X026172Y006922D02*
X030070Y006922D01*
X030070Y006764D02*
X026332Y006764D01*
X026450Y006605D02*
X028600Y006605D01*
X028600Y006604D02*
X028600Y006228D01*
X029132Y006228D01*
X029132Y006760D01*
X028756Y006760D01*
X028711Y006748D01*
X028669Y006724D01*
X028636Y006691D01*
X028612Y006649D01*
X028600Y006604D01*
X028600Y006447D02*
X026515Y006447D01*
X026554Y006288D02*
X028600Y006288D01*
X028600Y006132D02*
X028600Y005756D01*
X028612Y005711D01*
X028636Y005669D01*
X028669Y005636D01*
X028711Y005612D01*
X028756Y005600D01*
X029132Y005600D01*
X029132Y006132D01*
X029228Y006132D01*
X029228Y006228D01*
X029132Y006228D01*
X029132Y006132D01*
X028600Y006132D01*
X028600Y006130D02*
X026554Y006130D01*
X026539Y005971D02*
X028600Y005971D01*
X028600Y005813D02*
X026473Y005813D01*
X026390Y005654D02*
X028651Y005654D01*
X029132Y005654D02*
X029228Y005654D01*
X029228Y005600D02*
X029604Y005600D01*
X029649Y005612D01*
X029691Y005636D01*
X029724Y005669D01*
X029748Y005711D01*
X029760Y005756D01*
X029760Y006132D01*
X029228Y006132D01*
X029228Y005600D01*
X029228Y005813D02*
X029132Y005813D01*
X029132Y005971D02*
X029228Y005971D01*
X029228Y006130D02*
X029132Y006130D01*
X029228Y006228D02*
X029228Y006760D01*
X029604Y006760D01*
X029649Y006748D01*
X029691Y006724D01*
X029724Y006691D01*
X029748Y006649D01*
X029760Y006604D01*
X029760Y006228D01*
X029228Y006228D01*
X029228Y006288D02*
X029132Y006288D01*
X029132Y006447D02*
X029228Y006447D01*
X029228Y006605D02*
X029132Y006605D01*
X029760Y006605D02*
X030070Y006605D01*
X030070Y006447D02*
X029760Y006447D01*
X029760Y006288D02*
X030070Y006288D01*
X030070Y006130D02*
X029760Y006130D01*
X029760Y005971D02*
X030070Y005971D01*
X030070Y005813D02*
X029760Y005813D01*
X029709Y005654D02*
X030070Y005654D01*
X030070Y005496D02*
X026231Y005496D01*
X025928Y005337D02*
X030070Y005337D01*
X030070Y005179D02*
X002660Y005179D01*
X002660Y005337D02*
X006432Y005337D01*
X006506Y005306D02*
X006854Y005306D01*
X007175Y005439D01*
X007421Y005685D01*
X007554Y006006D01*
X007554Y006354D01*
X007421Y006675D01*
X007175Y006921D01*
X006854Y007054D01*
X006506Y007054D01*
X006185Y006921D01*
X005939Y006675D01*
X005806Y006354D01*
X005806Y006006D01*
X005939Y005685D01*
X006185Y005439D01*
X006506Y005306D01*
X006129Y005496D02*
X003990Y005496D01*
X004122Y005550D02*
X003835Y005431D01*
X003525Y005431D01*
X003238Y005550D01*
X003019Y005770D01*
X002900Y006056D01*
X002900Y006367D01*
X003019Y006653D01*
X003238Y006873D01*
X003525Y006991D01*
X003835Y006991D01*
X004122Y006873D01*
X004341Y006653D01*
X004460Y006367D01*
X004460Y006056D01*
X004341Y005770D01*
X004122Y005550D01*
X004226Y005654D02*
X005970Y005654D01*
X005887Y005813D02*
X004359Y005813D01*
X004425Y005971D02*
X005821Y005971D01*
X005806Y006130D02*
X004460Y006130D01*
X004460Y006288D02*
X005806Y006288D01*
X005845Y006447D02*
X004427Y006447D01*
X004361Y006605D02*
X005910Y006605D01*
X006028Y006764D02*
X004231Y006764D01*
X004003Y006922D02*
X006188Y006922D01*
X006812Y007398D02*
X002660Y007398D01*
X002660Y007556D02*
X006733Y007556D01*
X006720Y007715D02*
X004249Y007715D01*
X004248Y007711D02*
X004260Y007756D01*
X004260Y008132D01*
X003728Y008132D01*
X003728Y008228D01*
X003632Y008228D01*
X003632Y008760D01*
X003256Y008760D01*
X003211Y008748D01*
X003169Y008724D01*
X003136Y008691D01*
X003112Y008649D01*
X003100Y008604D01*
X003100Y008228D01*
X003632Y008228D01*
X003632Y008132D01*
X003728Y008132D01*
X003728Y007600D01*
X004104Y007600D01*
X004149Y007612D01*
X004191Y007636D01*
X004224Y007669D01*
X004248Y007711D01*
X004260Y007873D02*
X006720Y007873D01*
X006720Y008032D02*
X004260Y008032D01*
X004260Y008228D02*
X003728Y008228D01*
X003728Y008760D01*
X004104Y008760D01*
X004149Y008748D01*
X004191Y008724D01*
X004224Y008691D01*
X004248Y008649D01*
X004260Y008604D01*
X004260Y008228D01*
X004260Y008349D02*
X006720Y008349D01*
X006720Y008507D02*
X004260Y008507D01*
X004238Y008666D02*
X006720Y008666D01*
X006720Y008824D02*
X002660Y008824D01*
X002660Y008666D02*
X003122Y008666D01*
X003100Y008507D02*
X002660Y008507D01*
X002660Y008349D02*
X003100Y008349D01*
X003100Y008132D02*
X003100Y007756D01*
X003112Y007711D01*
X003136Y007669D01*
X003169Y007636D01*
X003211Y007612D01*
X003256Y007600D01*
X003632Y007600D01*
X003632Y008132D01*
X003100Y008132D01*
X003100Y008032D02*
X002660Y008032D01*
X002660Y008190D02*
X003632Y008190D01*
X003728Y008190D02*
X006720Y008190D01*
X006970Y007239D02*
X002660Y007239D01*
X002660Y007081D02*
X007129Y007081D01*
X007172Y006922D02*
X007287Y006922D01*
X007332Y006764D02*
X007446Y006764D01*
X007450Y006605D02*
X007604Y006605D01*
X007515Y006447D02*
X007763Y006447D01*
X007921Y006288D02*
X007554Y006288D01*
X007554Y006130D02*
X008080Y006130D01*
X008238Y005971D02*
X007539Y005971D01*
X007473Y005813D02*
X008397Y005813D01*
X007390Y005654D02*
X024970Y005654D01*
X024887Y005813D02*
X018963Y005813D01*
X019122Y005971D02*
X024821Y005971D01*
X024806Y006130D02*
X019280Y006130D01*
X019439Y006288D02*
X024806Y006288D01*
X024845Y006447D02*
X019597Y006447D01*
X019756Y006605D02*
X024910Y006605D01*
X025028Y006764D02*
X019914Y006764D01*
X020073Y006922D02*
X025188Y006922D01*
X025129Y005496D02*
X007231Y005496D01*
X006928Y005337D02*
X025432Y005337D01*
X024590Y004341D02*
X024304Y004460D01*
X023993Y004460D01*
X023707Y004341D01*
X023487Y004122D01*
X023369Y003835D01*
X023369Y003525D01*
X023487Y003238D01*
X023707Y003019D01*
X023993Y002900D01*
X024304Y002900D01*
X024590Y003019D01*
X024810Y003238D01*
X024929Y003525D01*
X024929Y003835D01*
X024810Y004122D01*
X024590Y004341D01*
X024482Y004386D02*
X030070Y004386D01*
X030070Y004228D02*
X024704Y004228D01*
X024832Y004069D02*
X030070Y004069D01*
X030070Y003911D02*
X024897Y003911D01*
X024929Y003752D02*
X030070Y003752D01*
X030070Y003594D02*
X024929Y003594D01*
X024891Y003435D02*
X030070Y003435D01*
X030070Y003277D02*
X024826Y003277D01*
X024690Y003118D02*
X030070Y003118D01*
X030070Y002960D02*
X024447Y002960D01*
X023850Y002960D02*
X019947Y002960D01*
X020090Y003019D02*
X019804Y002900D01*
X019493Y002900D01*
X019207Y003019D01*
X018987Y003238D01*
X018869Y003525D01*
X018869Y003835D01*
X018987Y004122D01*
X019207Y004341D01*
X019493Y004460D01*
X019804Y004460D01*
X020090Y004341D01*
X020310Y004122D01*
X020429Y003835D01*
X020429Y003525D01*
X020310Y003238D01*
X020090Y003019D01*
X020190Y003118D02*
X021701Y003118D01*
X021711Y003112D02*
X021756Y003100D01*
X022132Y003100D01*
X022132Y003632D01*
X022228Y003632D01*
X022228Y003728D01*
X022760Y003728D01*
X022760Y004104D01*
X022748Y004149D01*
X022724Y004191D01*
X022691Y004224D01*
X022649Y004248D01*
X022604Y004260D01*
X022228Y004260D01*
X022228Y003728D01*
X022132Y003728D01*
X022132Y004260D01*
X021756Y004260D01*
X021711Y004248D01*
X021669Y004224D01*
X021636Y004191D01*
X021612Y004149D01*
X021600Y004104D01*
X021600Y003728D01*
X022132Y003728D01*
X022132Y003632D01*
X021600Y003632D01*
X021600Y003256D01*
X021612Y003211D01*
X021636Y003169D01*
X021669Y003136D01*
X021711Y003112D01*
X021600Y003277D02*
X020326Y003277D01*
X020391Y003435D02*
X021600Y003435D01*
X021600Y003594D02*
X020429Y003594D01*
X020429Y003752D02*
X021600Y003752D01*
X021600Y003911D02*
X020397Y003911D01*
X020332Y004069D02*
X021600Y004069D01*
X021675Y004228D02*
X020204Y004228D01*
X019982Y004386D02*
X023815Y004386D01*
X023593Y004228D02*
X022685Y004228D01*
X022760Y004069D02*
X023465Y004069D01*
X023400Y003911D02*
X022760Y003911D01*
X022760Y003752D02*
X023369Y003752D01*
X023369Y003594D02*
X022760Y003594D01*
X022760Y003632D02*
X022228Y003632D01*
X022228Y003100D01*
X022604Y003100D01*
X022649Y003112D01*
X022691Y003136D01*
X022724Y003169D01*
X022748Y003211D01*
X022760Y003256D01*
X022760Y003632D01*
X022760Y003435D02*
X023406Y003435D01*
X023471Y003277D02*
X022760Y003277D01*
X022659Y003118D02*
X023607Y003118D01*
X022228Y003118D02*
X022132Y003118D01*
X022132Y003277D02*
X022228Y003277D01*
X022228Y003435D02*
X022132Y003435D01*
X022132Y003594D02*
X022228Y003594D01*
X022228Y003752D02*
X022132Y003752D01*
X022132Y003911D02*
X022228Y003911D01*
X022228Y004069D02*
X022132Y004069D01*
X022132Y004228D02*
X022228Y004228D01*
X019350Y002960D02*
X015447Y002960D01*
X015590Y003019D02*
X015810Y003238D01*
X015929Y003525D01*
X015929Y003835D01*
X015810Y004122D01*
X015590Y004341D01*
X015304Y004460D01*
X014993Y004460D01*
X014707Y004341D01*
X014487Y004122D01*
X014369Y003835D01*
X014369Y003525D01*
X014487Y003238D01*
X014707Y003019D01*
X014993Y002900D01*
X015304Y002900D01*
X015590Y003019D01*
X015690Y003118D02*
X017201Y003118D01*
X017211Y003112D02*
X017256Y003100D01*
X017632Y003100D01*
X017632Y003632D01*
X017728Y003632D01*
X017728Y003728D01*
X018260Y003728D01*
X018260Y004104D01*
X018248Y004149D01*
X018224Y004191D01*
X018191Y004224D01*
X018149Y004248D01*
X018104Y004260D01*
X017728Y004260D01*
X017728Y003728D01*
X017632Y003728D01*
X017632Y004260D01*
X017256Y004260D01*
X017211Y004248D01*
X017169Y004224D01*
X017136Y004191D01*
X017112Y004149D01*
X017100Y004104D01*
X017100Y003728D01*
X017632Y003728D01*
X017632Y003632D01*
X017100Y003632D01*
X017100Y003256D01*
X017112Y003211D01*
X017136Y003169D01*
X017169Y003136D01*
X017211Y003112D01*
X017100Y003277D02*
X015826Y003277D01*
X015891Y003435D02*
X017100Y003435D01*
X017100Y003594D02*
X015929Y003594D01*
X015929Y003752D02*
X017100Y003752D01*
X017100Y003911D02*
X015897Y003911D01*
X015832Y004069D02*
X017100Y004069D01*
X017175Y004228D02*
X015704Y004228D01*
X015482Y004386D02*
X019315Y004386D01*
X019093Y004228D02*
X018185Y004228D01*
X018260Y004069D02*
X018965Y004069D01*
X018900Y003911D02*
X018260Y003911D01*
X018260Y003752D02*
X018869Y003752D01*
X018869Y003594D02*
X018260Y003594D01*
X018260Y003632D02*
X017728Y003632D01*
X017728Y003100D01*
X018104Y003100D01*
X018149Y003112D01*
X018191Y003136D01*
X018224Y003169D01*
X018248Y003211D01*
X018260Y003256D01*
X018260Y003632D01*
X018260Y003435D02*
X018906Y003435D01*
X018971Y003277D02*
X018260Y003277D01*
X018159Y003118D02*
X019107Y003118D01*
X017728Y003118D02*
X017632Y003118D01*
X017632Y003277D02*
X017728Y003277D01*
X017728Y003435D02*
X017632Y003435D01*
X017632Y003594D02*
X017728Y003594D01*
X017728Y003752D02*
X017632Y003752D01*
X017632Y003911D02*
X017728Y003911D01*
X017728Y004069D02*
X017632Y004069D01*
X017632Y004228D02*
X017728Y004228D01*
X014815Y004386D02*
X010982Y004386D01*
X011090Y004341D02*
X010804Y004460D01*
X010493Y004460D01*
X010207Y004341D01*
X009987Y004122D01*
X009869Y003835D01*
X009869Y003525D01*
X009987Y003238D01*
X010207Y003019D01*
X010493Y002900D01*
X010804Y002900D01*
X011090Y003019D01*
X011310Y003238D01*
X011429Y003525D01*
X011429Y003835D01*
X011310Y004122D01*
X011090Y004341D01*
X011204Y004228D02*
X012675Y004228D01*
X012669Y004224D02*
X012636Y004191D01*
X012612Y004149D01*
X012600Y004104D01*
X012600Y003728D01*
X013132Y003728D01*
X013132Y004260D01*
X012756Y004260D01*
X012711Y004248D01*
X012669Y004224D01*
X012600Y004069D02*
X011332Y004069D01*
X011397Y003911D02*
X012600Y003911D01*
X012600Y003752D02*
X011429Y003752D01*
X011429Y003594D02*
X012600Y003594D01*
X012600Y003632D02*
X012600Y003256D01*
X012612Y003211D01*
X012636Y003169D01*
X012669Y003136D01*
X012711Y003112D01*
X012756Y003100D01*
X013132Y003100D01*
X013132Y003632D01*
X013228Y003632D01*
X013228Y003728D01*
X013760Y003728D01*
X013760Y004104D01*
X013748Y004149D01*
X013724Y004191D01*
X013691Y004224D01*
X013649Y004248D01*
X013604Y004260D01*
X013228Y004260D01*
X013228Y003728D01*
X013132Y003728D01*
X013132Y003632D01*
X012600Y003632D01*
X012600Y003435D02*
X011391Y003435D01*
X011326Y003277D02*
X012600Y003277D01*
X012701Y003118D02*
X011190Y003118D01*
X010947Y002960D02*
X014850Y002960D01*
X014607Y003118D02*
X013659Y003118D01*
X013649Y003112D02*
X013691Y003136D01*
X013724Y003169D01*
X013748Y003211D01*
X013760Y003256D01*
X013760Y003632D01*
X013228Y003632D01*
X013228Y003100D01*
X013604Y003100D01*
X013649Y003112D01*
X013760Y003277D02*
X014471Y003277D01*
X014406Y003435D02*
X013760Y003435D01*
X013760Y003594D02*
X014369Y003594D01*
X014369Y003752D02*
X013760Y003752D01*
X013760Y003911D02*
X014400Y003911D01*
X014465Y004069D02*
X013760Y004069D01*
X013685Y004228D02*
X014593Y004228D01*
X013228Y004228D02*
X013132Y004228D01*
X013132Y004069D02*
X013228Y004069D01*
X013228Y003911D02*
X013132Y003911D01*
X013132Y003752D02*
X013228Y003752D01*
X013228Y003594D02*
X013132Y003594D01*
X013132Y003435D02*
X013228Y003435D01*
X013228Y003277D02*
X013132Y003277D01*
X013132Y003118D02*
X013228Y003118D01*
X010350Y002960D02*
X002660Y002960D01*
X002660Y003118D02*
X008201Y003118D01*
X008211Y003112D02*
X008256Y003100D01*
X008632Y003100D01*
X008632Y003632D01*
X008728Y003632D01*
X008728Y003728D01*
X009260Y003728D01*
X009260Y004104D01*
X009248Y004149D01*
X009224Y004191D01*
X009191Y004224D01*
X009149Y004248D01*
X009104Y004260D01*
X008728Y004260D01*
X008728Y003728D01*
X008632Y003728D01*
X008632Y004260D01*
X008256Y004260D01*
X008211Y004248D01*
X008169Y004224D01*
X008136Y004191D01*
X008112Y004149D01*
X008100Y004104D01*
X008100Y003728D01*
X008632Y003728D01*
X008632Y003632D01*
X008100Y003632D01*
X008100Y003256D01*
X008112Y003211D01*
X008136Y003169D01*
X008169Y003136D01*
X008211Y003112D01*
X008100Y003277D02*
X002660Y003277D01*
X002660Y003435D02*
X008100Y003435D01*
X008100Y003594D02*
X002660Y003594D01*
X002660Y003752D02*
X008100Y003752D01*
X008100Y003911D02*
X002660Y003911D01*
X002660Y004069D02*
X008100Y004069D01*
X008175Y004228D02*
X002660Y004228D01*
X002660Y004386D02*
X010315Y004386D01*
X010093Y004228D02*
X009185Y004228D01*
X009260Y004069D02*
X009965Y004069D01*
X009900Y003911D02*
X009260Y003911D01*
X009260Y003752D02*
X009869Y003752D01*
X009869Y003594D02*
X009260Y003594D01*
X009260Y003632D02*
X008728Y003632D01*
X008728Y003100D01*
X009104Y003100D01*
X009149Y003112D01*
X009191Y003136D01*
X009224Y003169D01*
X009248Y003211D01*
X009260Y003256D01*
X009260Y003632D01*
X009260Y003435D02*
X009906Y003435D01*
X009971Y003277D02*
X009260Y003277D01*
X009159Y003118D02*
X010107Y003118D01*
X008728Y003118D02*
X008632Y003118D01*
X008632Y003277D02*
X008728Y003277D01*
X008728Y003435D02*
X008632Y003435D01*
X008632Y003594D02*
X008728Y003594D01*
X008728Y003752D02*
X008632Y003752D01*
X008632Y003911D02*
X008728Y003911D01*
X008728Y004069D02*
X008632Y004069D01*
X008632Y004228D02*
X008728Y004228D01*
X003728Y007715D02*
X003632Y007715D01*
X003632Y007873D02*
X003728Y007873D01*
X003728Y008032D02*
X003632Y008032D01*
X003632Y008349D02*
X003728Y008349D01*
X003728Y008507D02*
X003632Y008507D01*
X003632Y008666D02*
X003728Y008666D01*
X003100Y007873D02*
X002660Y007873D01*
X002660Y007715D02*
X003111Y007715D01*
X003357Y006922D02*
X002660Y006922D01*
X002660Y006764D02*
X003129Y006764D01*
X002999Y006605D02*
X002660Y006605D01*
X002660Y006447D02*
X002933Y006447D01*
X002900Y006288D02*
X002660Y006288D01*
X002660Y006130D02*
X002900Y006130D01*
X002935Y005971D02*
X002660Y005971D01*
X002660Y005813D02*
X003001Y005813D01*
X003134Y005654D02*
X002660Y005654D01*
X002660Y005496D02*
X003370Y005496D01*
X002660Y005020D02*
X030070Y005020D01*
X030070Y004862D02*
X002660Y004862D01*
X002660Y004703D02*
X030070Y004703D01*
X030070Y004545D02*
X002660Y004545D01*
X002660Y002801D02*
X030070Y002801D01*
X023700Y008666D02*
X023660Y008666D01*
X023660Y008824D02*
X023700Y008824D01*
X023345Y008824D02*
X023274Y008824D01*
X022499Y009141D02*
X021861Y009141D01*
X022139Y008983D02*
X022221Y008983D01*
X021499Y009141D02*
X020861Y009141D01*
X021139Y008983D02*
X021221Y008983D01*
X020499Y009141D02*
X019861Y009141D01*
X020139Y008983D02*
X020221Y008983D01*
X019499Y009141D02*
X019135Y009141D01*
X019139Y008983D02*
X019221Y008983D01*
X016221Y008983D02*
X016139Y008983D01*
X016135Y009141D02*
X016225Y009141D01*
X016225Y009300D02*
X016123Y009300D01*
X016045Y009458D02*
X016225Y009458D01*
X016225Y009617D02*
X015887Y009617D01*
X015728Y009775D02*
X016225Y009775D01*
X016225Y009934D02*
X015570Y009934D01*
X015411Y010092D02*
X016225Y010092D01*
X016225Y010251D02*
X015253Y010251D01*
X015094Y010409D02*
X016225Y010409D01*
X016225Y010568D02*
X014936Y010568D01*
X014777Y010726D02*
X016225Y010726D01*
X016225Y010885D02*
X014619Y010885D01*
X014460Y011043D02*
X016225Y011043D01*
X016225Y011202D02*
X014302Y011202D01*
X014143Y011360D02*
X016225Y011360D01*
X016225Y011519D02*
X013985Y011519D01*
X013826Y011677D02*
X016225Y011677D01*
X016225Y011836D02*
X014097Y011836D01*
X014256Y011994D02*
X016225Y011994D01*
X016225Y012153D02*
X014322Y012153D01*
X014360Y012311D02*
X016225Y012311D01*
X016225Y012470D02*
X014360Y012470D01*
X014360Y012628D02*
X016225Y012628D01*
X016225Y012787D02*
X014360Y012787D01*
X014360Y012945D02*
X016225Y012945D01*
X016225Y013104D02*
X014360Y013104D01*
X014299Y013262D02*
X016225Y013262D01*
X016225Y013421D02*
X014201Y013421D01*
X014135Y013579D02*
X016225Y013579D01*
X016225Y013738D02*
X014135Y013738D01*
X014135Y013896D02*
X016225Y013896D01*
X016225Y014055D02*
X014135Y014055D01*
X014135Y014213D02*
X016225Y014213D01*
X016225Y014372D02*
X014135Y014372D01*
X014135Y014530D02*
X016225Y014530D01*
X016225Y014689D02*
X014135Y014689D01*
X014135Y014847D02*
X016257Y014847D01*
X016362Y015006D02*
X014135Y015006D01*
X014135Y015164D02*
X016521Y015164D01*
X016679Y015323D02*
X014135Y015323D01*
X014135Y015481D02*
X016838Y015481D01*
X016996Y015640D02*
X014135Y015640D01*
X014135Y015798D02*
X017155Y015798D01*
X017313Y015957D02*
X014135Y015957D01*
X014135Y016115D02*
X017472Y016115D01*
X017630Y016274D02*
X014135Y016274D01*
X014194Y016432D02*
X017789Y016432D01*
X017947Y016591D02*
X014296Y016591D01*
X014360Y016749D02*
X018106Y016749D01*
X018264Y016908D02*
X014360Y016908D01*
X014360Y017066D02*
X018423Y017066D01*
X018581Y017225D02*
X014360Y017225D01*
X014360Y017383D02*
X018740Y017383D01*
X018898Y017542D02*
X014360Y017542D01*
X014325Y017700D02*
X019035Y017700D01*
X019101Y017859D02*
X014259Y017859D01*
X014105Y018017D02*
X019255Y018017D01*
X020105Y018017D02*
X020255Y018017D01*
X021105Y018017D02*
X021255Y018017D01*
X022105Y018017D02*
X022255Y018017D01*
X023105Y018017D02*
X023255Y018017D01*
X023367Y016274D02*
X023135Y016274D01*
X023135Y016115D02*
X030070Y016115D01*
X030070Y015957D02*
X023135Y015957D01*
X023135Y013579D02*
X023349Y013579D01*
X023263Y011836D02*
X023097Y011836D01*
X022263Y011836D02*
X022097Y011836D01*
X021263Y011836D02*
X021097Y011836D01*
X020263Y011836D02*
X020097Y011836D01*
X019263Y011836D02*
X019135Y011836D01*
X013255Y018017D02*
X013105Y018017D01*
X012255Y018017D02*
X012105Y018017D01*
X009556Y019127D02*
X002660Y019127D01*
X002660Y018968D02*
X006299Y018968D01*
X006185Y018921D02*
X005939Y018675D01*
X005806Y018354D01*
X005806Y018006D01*
X005939Y017685D01*
X006185Y017439D01*
X006506Y017306D01*
X006854Y017306D01*
X007175Y017439D01*
X007421Y017685D01*
X007554Y018006D01*
X007554Y018354D01*
X007421Y018675D01*
X007175Y018921D01*
X006854Y019054D01*
X006506Y019054D01*
X006185Y018921D01*
X006074Y018810D02*
X002660Y018810D01*
X002660Y018651D02*
X005929Y018651D01*
X005864Y018493D02*
X002660Y018493D01*
X002660Y018334D02*
X005806Y018334D01*
X005806Y018176D02*
X002660Y018176D01*
X002660Y018017D02*
X005806Y018017D01*
X005867Y017859D02*
X002660Y017859D01*
X002660Y017700D02*
X003145Y017700D01*
X003136Y017691D02*
X003112Y017649D01*
X003100Y017604D01*
X003100Y017228D01*
X003632Y017228D01*
X003632Y017760D01*
X003256Y017760D01*
X003211Y017748D01*
X003169Y017724D01*
X003136Y017691D01*
X003100Y017542D02*
X002660Y017542D01*
X002660Y017383D02*
X003100Y017383D01*
X003100Y017132D02*
X003100Y016756D01*
X003112Y016711D01*
X003136Y016669D01*
X003169Y016636D01*
X003211Y016612D01*
X003256Y016600D01*
X003632Y016600D01*
X003632Y017132D01*
X003728Y017132D01*
X003728Y017228D01*
X003632Y017228D01*
X003632Y017132D01*
X003100Y017132D01*
X003100Y017066D02*
X002660Y017066D01*
X002660Y016908D02*
X003100Y016908D01*
X003102Y016749D02*
X002660Y016749D01*
X002660Y016591D02*
X006940Y016591D01*
X006786Y016432D02*
X002660Y016432D01*
X002660Y016274D02*
X006721Y016274D01*
X006720Y016115D02*
X002660Y016115D01*
X002660Y015957D02*
X003440Y015957D01*
X003525Y015991D02*
X003238Y015873D01*
X003019Y015653D01*
X002900Y015367D01*
X002900Y015056D01*
X003019Y014770D01*
X003238Y014550D01*
X003525Y014431D01*
X003835Y014431D01*
X004122Y014550D01*
X004341Y014770D01*
X004460Y015056D01*
X004460Y015367D01*
X004341Y015653D01*
X004122Y015873D01*
X003835Y015991D01*
X003525Y015991D01*
X003920Y015957D02*
X006720Y015957D01*
X006720Y015798D02*
X004197Y015798D01*
X004347Y015640D02*
X006720Y015640D01*
X006720Y015481D02*
X004413Y015481D01*
X004460Y015323D02*
X006720Y015323D01*
X006720Y015164D02*
X004460Y015164D01*
X004439Y015006D02*
X006720Y015006D01*
X006720Y014847D02*
X004373Y014847D01*
X004260Y014689D02*
X006720Y014689D01*
X006720Y014530D02*
X004073Y014530D01*
X003287Y014530D02*
X002660Y014530D01*
X002660Y014372D02*
X006720Y014372D01*
X006720Y014213D02*
X002660Y014213D01*
X002660Y014055D02*
X006720Y014055D01*
X006720Y013896D02*
X002660Y013896D01*
X002660Y013738D02*
X006720Y013738D01*
X006720Y013579D02*
X002660Y013579D01*
X002660Y013421D02*
X006720Y013421D01*
X006720Y013262D02*
X002660Y013262D01*
X002660Y013104D02*
X003100Y013104D01*
X003100Y012728D01*
X003632Y012728D01*
X003632Y013260D01*
X003256Y013260D01*
X003211Y013248D01*
X003169Y013224D01*
X003136Y013191D01*
X003112Y013149D01*
X003100Y013104D01*
X003100Y012945D02*
X002660Y012945D01*
X002660Y012787D02*
X003100Y012787D01*
X003100Y012632D02*
X003100Y012256D01*
X003112Y012211D01*
X003136Y012169D01*
X003169Y012136D01*
X003211Y012112D01*
X003256Y012100D01*
X003632Y012100D01*
X003632Y012632D01*
X003728Y012632D01*
X003728Y012728D01*
X003632Y012728D01*
X003632Y012632D01*
X003100Y012632D01*
X003100Y012628D02*
X002660Y012628D01*
X002660Y012470D02*
X003100Y012470D01*
X003100Y012311D02*
X002660Y012311D01*
X002660Y012153D02*
X003153Y012153D01*
X003632Y012153D02*
X003728Y012153D01*
X003728Y012100D02*
X004104Y012100D01*
X004149Y012112D01*
X004191Y012136D01*
X004224Y012169D01*
X004248Y012211D01*
X004260Y012256D01*
X004260Y012632D01*
X003728Y012632D01*
X003728Y012100D01*
X003728Y012311D02*
X003632Y012311D01*
X003632Y012470D02*
X003728Y012470D01*
X003728Y012628D02*
X003632Y012628D01*
X003728Y012728D02*
X003728Y013260D01*
X004104Y013260D01*
X004149Y013248D01*
X004191Y013224D01*
X004224Y013191D01*
X004248Y013149D01*
X004260Y013104D01*
X004260Y012728D01*
X003728Y012728D01*
X003728Y012787D02*
X003632Y012787D01*
X003632Y012945D02*
X003728Y012945D01*
X003728Y013104D02*
X003632Y013104D01*
X004260Y013104D02*
X006720Y013104D01*
X006720Y012945D02*
X004260Y012945D01*
X004260Y012787D02*
X006720Y012787D01*
X006720Y012628D02*
X004260Y012628D01*
X004260Y012470D02*
X006720Y012470D01*
X006720Y012311D02*
X004260Y012311D01*
X004207Y012153D02*
X006720Y012153D01*
X006720Y011994D02*
X002660Y011994D01*
X002660Y011836D02*
X006720Y011836D01*
X006720Y011677D02*
X002660Y011677D01*
X002660Y011519D02*
X006720Y011519D01*
X006720Y011360D02*
X004135Y011360D01*
X004122Y011373D02*
X003835Y011491D01*
X003525Y011491D01*
X003238Y011373D01*
X003019Y011153D01*
X002900Y010867D01*
X002900Y010556D01*
X003019Y010270D01*
X003238Y010050D01*
X003525Y009931D01*
X003835Y009931D01*
X004122Y010050D01*
X004341Y010270D01*
X004460Y010556D01*
X004460Y010867D01*
X004341Y011153D01*
X004122Y011373D01*
X004293Y011202D02*
X006720Y011202D01*
X006720Y011043D02*
X004387Y011043D01*
X004453Y010885D02*
X006720Y010885D01*
X006720Y010726D02*
X004460Y010726D01*
X004460Y010568D02*
X006720Y010568D01*
X006720Y010409D02*
X004399Y010409D01*
X004322Y010251D02*
X006720Y010251D01*
X006720Y010092D02*
X004164Y010092D01*
X003840Y009934D02*
X006720Y009934D01*
X006720Y009775D02*
X002660Y009775D01*
X002660Y009617D02*
X006720Y009617D01*
X006720Y009458D02*
X002660Y009458D01*
X002660Y009300D02*
X006720Y009300D01*
X006720Y009141D02*
X002660Y009141D01*
X002660Y008983D02*
X006720Y008983D01*
X003520Y009934D02*
X002660Y009934D01*
X002660Y010092D02*
X003196Y010092D01*
X003038Y010251D02*
X002660Y010251D01*
X002660Y010409D02*
X002961Y010409D01*
X002900Y010568D02*
X002660Y010568D01*
X002660Y010726D02*
X002900Y010726D01*
X002907Y010885D02*
X002660Y010885D01*
X002660Y011043D02*
X002973Y011043D01*
X003067Y011202D02*
X002660Y011202D01*
X002660Y011360D02*
X003225Y011360D01*
X003100Y014689D02*
X002660Y014689D01*
X002660Y014847D02*
X002987Y014847D01*
X002921Y015006D02*
X002660Y015006D01*
X002660Y015164D02*
X002900Y015164D01*
X002900Y015323D02*
X002660Y015323D01*
X002660Y015481D02*
X002947Y015481D01*
X003013Y015640D02*
X002660Y015640D01*
X002660Y015798D02*
X003163Y015798D01*
X003728Y016600D02*
X004104Y016600D01*
X004149Y016612D01*
X004191Y016636D01*
X004224Y016669D01*
X004248Y016711D01*
X004260Y016756D01*
X004260Y017132D01*
X003728Y017132D01*
X003728Y016600D01*
X003728Y016749D02*
X003632Y016749D01*
X003632Y016908D02*
X003728Y016908D01*
X003728Y017066D02*
X003632Y017066D01*
X003632Y017225D02*
X002660Y017225D01*
X003632Y017383D02*
X003728Y017383D01*
X003728Y017228D02*
X003728Y017760D01*
X004104Y017760D01*
X004149Y017748D01*
X004191Y017724D01*
X004224Y017691D01*
X004248Y017649D01*
X004260Y017604D01*
X004260Y017228D01*
X003728Y017228D01*
X003728Y017225D02*
X007574Y017225D01*
X007732Y017383D02*
X007039Y017383D01*
X007277Y017542D02*
X007891Y017542D01*
X008049Y017700D02*
X007427Y017700D01*
X007493Y017859D02*
X008208Y017859D01*
X008366Y018017D02*
X007554Y018017D01*
X007554Y018176D02*
X008525Y018176D01*
X008683Y018334D02*
X007554Y018334D01*
X007496Y018493D02*
X008842Y018493D01*
X009000Y018651D02*
X007431Y018651D01*
X007286Y018810D02*
X009159Y018810D01*
X009317Y018968D02*
X007061Y018968D01*
X005933Y017700D02*
X004215Y017700D01*
X004260Y017542D02*
X006083Y017542D01*
X006321Y017383D02*
X004260Y017383D01*
X004260Y017066D02*
X007415Y017066D01*
X007257Y016908D02*
X004260Y016908D01*
X004258Y016749D02*
X007098Y016749D01*
X003728Y017542D02*
X003632Y017542D01*
X003632Y017700D02*
X003728Y017700D01*
D15*
X008180Y015680D02*
X008180Y007680D01*
X009180Y006680D01*
X018180Y006680D01*
X019680Y008180D01*
X018680Y008180D02*
X018680Y014180D01*
X021680Y017180D01*
X020680Y017180D02*
X017680Y014180D01*
X017680Y008180D01*
X016680Y008180D02*
X016680Y014680D01*
X019180Y017180D01*
X019680Y017180D01*
X022680Y017180D02*
X022680Y012680D01*
X015680Y009180D02*
X015680Y008180D01*
X014680Y008180D02*
X014680Y009180D01*
X012180Y011680D01*
X011680Y011680D01*
X010680Y012680D01*
X009680Y012680D02*
X010680Y011680D01*
X011180Y011680D01*
X013680Y009180D01*
X013680Y008180D01*
X011680Y008180D02*
X011680Y009180D01*
X012180Y009680D01*
X011680Y010180D02*
X010680Y009180D01*
X010680Y008180D01*
X012680Y011680D02*
X011680Y012680D01*
X012680Y012680D02*
X012680Y017180D01*
X013680Y017180D02*
X013680Y012680D01*
X013180Y011680D02*
X012680Y011680D01*
X013180Y011680D02*
X015680Y009180D01*
X008180Y015680D02*
X009680Y017180D01*
D16*
X011680Y010180D03*
X012180Y009680D03*
M02*
