G75*
%MOIN*%
%OFA0B0*%
%FSLAX24Y24*%
%IPPOS*%
%LPD*%
%AMOC8*
5,1,8,0,0,1.08239X$1,22.5*
%
%ADD10C,0.0000*%
%ADD11C,0.0600*%
%ADD12OC8,0.0480*%
%ADD13C,0.0150*%
%ADD14C,0.0360*%
D10*
X000100Y000140D02*
X000100Y023136D01*
X020970Y023136D01*
X020970Y000140D01*
X000100Y000140D01*
X002206Y003640D02*
X002208Y003679D01*
X002214Y003718D01*
X002224Y003756D01*
X002237Y003793D01*
X002254Y003828D01*
X002274Y003862D01*
X002298Y003893D01*
X002325Y003922D01*
X002354Y003948D01*
X002386Y003971D01*
X002420Y003991D01*
X002456Y004007D01*
X002493Y004019D01*
X002532Y004028D01*
X002571Y004033D01*
X002610Y004034D01*
X002649Y004031D01*
X002688Y004024D01*
X002725Y004013D01*
X002762Y003999D01*
X002797Y003981D01*
X002830Y003960D01*
X002861Y003935D01*
X002889Y003908D01*
X002914Y003878D01*
X002936Y003845D01*
X002955Y003811D01*
X002970Y003775D01*
X002982Y003737D01*
X002990Y003699D01*
X002994Y003660D01*
X002994Y003620D01*
X002990Y003581D01*
X002982Y003543D01*
X002970Y003505D01*
X002955Y003469D01*
X002936Y003435D01*
X002914Y003402D01*
X002889Y003372D01*
X002861Y003345D01*
X002830Y003320D01*
X002797Y003299D01*
X002762Y003281D01*
X002725Y003267D01*
X002688Y003256D01*
X002649Y003249D01*
X002610Y003246D01*
X002571Y003247D01*
X002532Y003252D01*
X002493Y003261D01*
X002456Y003273D01*
X002420Y003289D01*
X002386Y003309D01*
X002354Y003332D01*
X002325Y003358D01*
X002298Y003387D01*
X002274Y003418D01*
X002254Y003452D01*
X002237Y003487D01*
X002224Y003524D01*
X002214Y003562D01*
X002208Y003601D01*
X002206Y003640D01*
X018206Y019640D02*
X018208Y019679D01*
X018214Y019718D01*
X018224Y019756D01*
X018237Y019793D01*
X018254Y019828D01*
X018274Y019862D01*
X018298Y019893D01*
X018325Y019922D01*
X018354Y019948D01*
X018386Y019971D01*
X018420Y019991D01*
X018456Y020007D01*
X018493Y020019D01*
X018532Y020028D01*
X018571Y020033D01*
X018610Y020034D01*
X018649Y020031D01*
X018688Y020024D01*
X018725Y020013D01*
X018762Y019999D01*
X018797Y019981D01*
X018830Y019960D01*
X018861Y019935D01*
X018889Y019908D01*
X018914Y019878D01*
X018936Y019845D01*
X018955Y019811D01*
X018970Y019775D01*
X018982Y019737D01*
X018990Y019699D01*
X018994Y019660D01*
X018994Y019620D01*
X018990Y019581D01*
X018982Y019543D01*
X018970Y019505D01*
X018955Y019469D01*
X018936Y019435D01*
X018914Y019402D01*
X018889Y019372D01*
X018861Y019345D01*
X018830Y019320D01*
X018797Y019299D01*
X018762Y019281D01*
X018725Y019267D01*
X018688Y019256D01*
X018649Y019249D01*
X018610Y019246D01*
X018571Y019247D01*
X018532Y019252D01*
X018493Y019261D01*
X018456Y019273D01*
X018420Y019289D01*
X018386Y019309D01*
X018354Y019332D01*
X018325Y019358D01*
X018298Y019387D01*
X018274Y019418D01*
X018254Y019452D01*
X018237Y019487D01*
X018224Y019524D01*
X018214Y019562D01*
X018208Y019601D01*
X018206Y019640D01*
D11*
X016600Y014940D02*
X016600Y014340D01*
X015600Y014340D02*
X015600Y014940D01*
X014600Y014940D02*
X014600Y014340D01*
X013600Y014340D02*
X013600Y014940D01*
X012600Y014940D02*
X012600Y014340D01*
X011600Y014340D02*
X011600Y014940D01*
X010100Y014940D02*
X010100Y014340D01*
X009100Y014340D02*
X009100Y014940D01*
X008100Y014940D02*
X008100Y014340D01*
X007100Y014340D02*
X007100Y014940D01*
X006100Y014940D02*
X006100Y014340D01*
X005100Y014340D02*
X005100Y014940D01*
X005300Y012640D02*
X005900Y012640D01*
X005900Y011640D02*
X005300Y011640D01*
X005300Y010640D02*
X005900Y010640D01*
X005900Y009640D02*
X005300Y009640D01*
X005300Y008640D02*
X005900Y008640D01*
X005900Y007640D02*
X005300Y007640D01*
X005100Y005940D02*
X005100Y005340D01*
X006100Y005340D02*
X006100Y005940D01*
X007100Y005940D02*
X007100Y005340D01*
X008100Y005340D02*
X008100Y005940D01*
X009100Y005940D02*
X009100Y005340D01*
X010100Y005340D02*
X010100Y005940D01*
X010100Y007840D02*
X010100Y008440D01*
X009100Y008440D02*
X009100Y007840D01*
X011100Y007840D02*
X011100Y008440D01*
X012100Y008440D02*
X012100Y007840D01*
X013100Y007840D02*
X013100Y008440D01*
X014100Y008440D02*
X014100Y007840D01*
X014100Y005940D02*
X014100Y005340D01*
X013100Y005340D02*
X013100Y005940D01*
X012100Y005940D02*
X012100Y005340D01*
X011600Y003440D02*
X011600Y002840D01*
X012600Y002840D02*
X012600Y003440D01*
X013600Y003440D02*
X013600Y002840D01*
X014600Y002840D02*
X014600Y003440D01*
X015600Y003440D02*
X015600Y002840D01*
X016600Y002840D02*
X016600Y003440D01*
X016100Y005340D02*
X016100Y005940D01*
X015100Y005940D02*
X015100Y005340D01*
X017100Y005340D02*
X017100Y005940D01*
X017800Y007640D02*
X018400Y007640D01*
X018400Y008640D02*
X017800Y008640D01*
X017800Y009640D02*
X018400Y009640D01*
X018400Y010640D02*
X017800Y010640D01*
X017800Y011640D02*
X018400Y011640D01*
X018400Y012640D02*
X017800Y012640D01*
X014100Y012440D02*
X014100Y011840D01*
X013100Y011840D02*
X013100Y012440D01*
X012100Y012440D02*
X012100Y011840D01*
X011100Y011840D02*
X011100Y012440D01*
X010100Y012440D02*
X010100Y011840D01*
X009100Y011840D02*
X009100Y012440D01*
X009100Y016840D02*
X009100Y017440D01*
X010100Y017440D02*
X010100Y016840D01*
X011100Y016840D02*
X011100Y017440D01*
X012100Y017440D02*
X012100Y016840D01*
X013100Y016840D02*
X013100Y017440D01*
X008100Y017440D02*
X008100Y016840D01*
X002900Y011640D02*
X002300Y011640D01*
X002300Y010640D02*
X002900Y010640D01*
X002900Y009640D02*
X002300Y009640D01*
X002300Y008640D02*
X002900Y008640D01*
X006600Y003440D02*
X006600Y002840D01*
X007600Y002840D02*
X007600Y003440D01*
X008600Y003440D02*
X008600Y002840D01*
X009600Y002840D02*
X009600Y003440D01*
X010600Y003440D02*
X010600Y002840D01*
D12*
X011100Y019640D03*
X011600Y020390D03*
X012100Y019640D03*
X014600Y019640D03*
X015100Y020390D03*
X015600Y019640D03*
X008600Y019640D03*
X008100Y020390D03*
X007600Y019640D03*
X005100Y019640D03*
X004600Y020390D03*
X004100Y019640D03*
D13*
X008100Y015640D01*
X008100Y014640D01*
X008100Y011640D01*
X008600Y011140D01*
X012600Y011140D01*
X013100Y011640D01*
X013100Y012140D01*
X013600Y011140D02*
X015100Y011140D01*
X015600Y010640D02*
X009100Y010640D01*
X009600Y010140D02*
X011600Y010140D01*
X012100Y009640D01*
X014600Y009640D01*
X015100Y009140D02*
X015100Y010140D01*
X015600Y010640D02*
X015600Y007640D01*
X014100Y006140D01*
X014100Y005640D01*
X015100Y005640D02*
X015100Y006140D01*
X015600Y006640D01*
X018600Y006640D01*
X020100Y008140D01*
X020100Y014140D01*
X017600Y016640D01*
X017600Y014140D01*
X017600Y013640D02*
X016100Y012140D01*
X016100Y009140D01*
X015100Y009140D02*
X008600Y009140D01*
X008100Y008640D01*
X008100Y005640D01*
X007600Y006640D02*
X004600Y006640D01*
X004100Y006140D01*
X004100Y005140D01*
X004600Y004640D01*
X006600Y004640D01*
X007600Y003640D01*
X007600Y003140D01*
X008600Y003140D02*
X008600Y004640D01*
X009600Y003640D02*
X011100Y005140D01*
X011100Y008140D01*
X011100Y009640D02*
X009100Y009640D01*
X008600Y009140D01*
X008600Y010140D02*
X007100Y011640D01*
X007100Y014640D01*
X006100Y013640D02*
X006600Y013140D01*
X006600Y010140D01*
X006100Y009640D01*
X005600Y009640D01*
X005600Y010640D02*
X005100Y010640D01*
X003100Y008640D01*
X002600Y008640D01*
X002600Y010640D02*
X004100Y010640D01*
X005100Y011640D01*
X005600Y011640D01*
X006100Y013640D02*
X004600Y013640D01*
X004100Y014140D01*
X004100Y017640D01*
X004100Y019640D02*
X005100Y019640D01*
X007600Y019640D01*
X008100Y020390D02*
X008100Y020640D01*
X005100Y020640D01*
X004600Y021140D01*
X004100Y021140D01*
X000600Y017640D01*
X000600Y004140D01*
X003600Y001140D01*
X014100Y001140D01*
X015600Y002640D01*
X015600Y003140D01*
X014600Y003140D02*
X014600Y002640D01*
X013600Y001640D01*
X006100Y001640D01*
X001100Y006640D01*
X001100Y017640D01*
X003600Y020140D01*
X004600Y020140D01*
X004600Y020390D01*
X008100Y017140D02*
X008100Y016640D01*
X009100Y015640D01*
X010600Y015640D01*
X011600Y014640D01*
X012600Y014640D02*
X012600Y015140D01*
X011600Y016140D01*
X009600Y016140D01*
X009100Y016640D01*
X009100Y017140D01*
X010100Y018140D02*
X010600Y018140D01*
X011100Y017640D01*
X011100Y017140D01*
X010100Y018140D02*
X008600Y019640D01*
X012100Y019640D02*
X014600Y017140D01*
X014600Y014640D01*
X013600Y014640D02*
X013600Y014140D01*
X015600Y012140D01*
X015600Y010640D01*
X017600Y008640D02*
X016100Y007140D01*
X015100Y007640D02*
X015100Y008140D01*
X015100Y007640D02*
X014600Y007140D01*
X013600Y007140D01*
X013100Y007640D01*
X013100Y008140D01*
X009600Y010140D02*
X008600Y010140D01*
X011100Y012140D02*
X011100Y012640D01*
X012100Y013640D01*
X013100Y013640D01*
X017600Y013640D02*
X018600Y013640D01*
X019600Y012640D01*
X019600Y012140D01*
X018100Y008640D02*
X017600Y008640D01*
X020100Y007140D02*
X017100Y004140D01*
X014100Y004140D01*
X013600Y003640D01*
X013600Y003140D01*
X012600Y003140D02*
X012600Y002640D01*
X012100Y002140D01*
X006100Y002140D01*
X001600Y006640D01*
X001600Y012640D01*
X009600Y003640D02*
X009600Y003140D01*
X016600Y001640D02*
X019100Y004140D01*
X019100Y005140D01*
X017600Y016640D02*
X014600Y019640D01*
D14*
X017600Y014140D03*
X019600Y012140D03*
X016100Y009140D03*
X015100Y010140D03*
X014600Y009640D03*
X015100Y011140D03*
X013600Y011140D03*
X013100Y013640D03*
X011100Y009640D03*
X009600Y010140D03*
X009100Y010640D03*
X007600Y006640D03*
X008600Y004640D03*
X015100Y008140D03*
X016100Y007140D03*
X019100Y005140D03*
X020100Y007140D03*
X016600Y001640D03*
X004100Y017640D03*
X001600Y012640D03*
M02*
