G75*
%MOIN*%
%OFA0B0*%
%FSLAX24Y24*%
%IPPOS*%
%LPD*%
%AMOC8*
5,1,8,0,0,1.08239X$1,22.5*
%
%ADD10C,0.0600*%
%ADD11OC8,0.0520*%
%ADD12C,0.0150*%
%ADD13C,0.0400*%
D10*
X005100Y005340D02*
X005100Y005940D01*
X006100Y005940D02*
X006100Y005340D01*
X007100Y005340D02*
X007100Y005940D01*
X008100Y005940D02*
X008100Y005340D01*
X009100Y005340D02*
X009100Y005940D01*
X010100Y005940D02*
X010100Y005340D01*
X009600Y003440D02*
X009600Y002840D01*
X008600Y002840D02*
X008600Y003440D01*
X007600Y003440D02*
X007600Y002840D01*
X006600Y002840D02*
X006600Y003440D01*
X005900Y007640D02*
X005300Y007640D01*
X005300Y008640D02*
X005900Y008640D01*
X005900Y009640D02*
X005300Y009640D01*
X005300Y010640D02*
X005900Y010640D01*
X005900Y011640D02*
X005300Y011640D01*
X005300Y012640D02*
X005900Y012640D01*
X006100Y014340D02*
X006100Y014940D01*
X005100Y014940D02*
X005100Y014340D01*
X007100Y014340D02*
X007100Y014940D01*
X008100Y014940D02*
X008100Y014340D01*
X009100Y014340D02*
X009100Y014940D01*
X010100Y014940D02*
X010100Y014340D01*
X011600Y014340D02*
X011600Y014940D01*
X012600Y014940D02*
X012600Y014340D01*
X013600Y014340D02*
X013600Y014940D01*
X014600Y014940D02*
X014600Y014340D01*
X015600Y014340D02*
X015600Y014940D01*
X016600Y014940D02*
X016600Y014340D01*
X017800Y012640D02*
X018400Y012640D01*
X018400Y011640D02*
X017800Y011640D01*
X017800Y010640D02*
X018400Y010640D01*
X018400Y009640D02*
X017800Y009640D01*
X017800Y008640D02*
X018400Y008640D01*
X018400Y007640D02*
X017800Y007640D01*
X017100Y005940D02*
X017100Y005340D01*
X016100Y005340D02*
X016100Y005940D01*
X015100Y005940D02*
X015100Y005340D01*
X014100Y005340D02*
X014100Y005940D01*
X013100Y005940D02*
X013100Y005340D01*
X012100Y005340D02*
X012100Y005940D01*
X012100Y007840D02*
X012100Y008440D01*
X011100Y008440D02*
X011100Y007840D01*
X010100Y007840D02*
X010100Y008440D01*
X009100Y008440D02*
X009100Y007840D01*
X009100Y011840D02*
X009100Y012440D01*
X010100Y012440D02*
X010100Y011840D01*
X011100Y011840D02*
X011100Y012440D01*
X012100Y012440D02*
X012100Y011840D01*
X013100Y011840D02*
X013100Y012440D01*
X014100Y012440D02*
X014100Y011840D01*
X014100Y008440D02*
X014100Y007840D01*
X013100Y007840D02*
X013100Y008440D01*
X012600Y003440D02*
X012600Y002840D01*
X011600Y002840D02*
X011600Y003440D01*
X010600Y003440D02*
X010600Y002840D01*
X013600Y002840D02*
X013600Y003440D01*
X014600Y003440D02*
X014600Y002840D01*
X015600Y002840D02*
X015600Y003440D01*
X016600Y003440D02*
X016600Y002840D01*
X013100Y016840D02*
X013100Y017440D01*
X012100Y017440D02*
X012100Y016840D01*
X011100Y016840D02*
X011100Y017440D01*
X010100Y017440D02*
X010100Y016840D01*
X009100Y016840D02*
X009100Y017440D01*
X008100Y017440D02*
X008100Y016840D01*
X002900Y011640D02*
X002300Y011640D01*
X002300Y010640D02*
X002900Y010640D01*
X002900Y009640D02*
X002300Y009640D01*
X002300Y008640D02*
X002900Y008640D01*
D11*
X004100Y019640D03*
X004600Y020390D03*
X005100Y019640D03*
X007600Y019640D03*
X008100Y020390D03*
X008600Y019640D03*
X011100Y019640D03*
X011600Y020390D03*
X012100Y019640D03*
X014600Y019640D03*
X015100Y020390D03*
X015600Y019640D03*
D12*
X015600Y020640D01*
X014600Y021640D01*
X008100Y021640D01*
X004100Y017640D01*
X004600Y017640D02*
X004600Y015640D01*
X001600Y012640D01*
X002600Y011640D02*
X004100Y011640D01*
X004100Y006640D01*
X005100Y005640D01*
X005100Y006640D02*
X005600Y006640D01*
X006100Y006140D01*
X006100Y005640D01*
X006100Y005140D01*
X006600Y004640D01*
X006600Y004140D01*
X012100Y004140D01*
X013100Y005140D01*
X013100Y005640D01*
X013100Y006140D01*
X014100Y007140D01*
X016100Y007140D01*
X015100Y008140D02*
X016100Y009140D01*
X015100Y010140D02*
X015600Y010640D01*
X018100Y010640D01*
X018100Y009640D02*
X014600Y009640D01*
X013600Y010140D02*
X012100Y008640D01*
X012100Y008140D01*
X013100Y007140D02*
X013600Y007140D01*
X014100Y007640D01*
X014100Y008140D01*
X014100Y012140D01*
X014100Y012640D01*
X013600Y013140D01*
X012600Y013140D01*
X011600Y014140D01*
X011600Y014640D01*
X013100Y013640D02*
X017100Y013640D01*
X017600Y014140D01*
X017600Y013640D02*
X015100Y011140D01*
X013600Y011140D02*
X013600Y010140D01*
X013100Y011640D02*
X013100Y012140D01*
X013100Y011640D02*
X011100Y009640D01*
X011600Y011140D02*
X010600Y011140D01*
X009600Y010140D01*
X007100Y007640D01*
X007100Y005640D01*
X007600Y006640D02*
X009100Y008140D01*
X010100Y008140D02*
X010100Y007640D01*
X011100Y006640D01*
X011100Y005140D01*
X010600Y004640D01*
X008600Y004640D01*
X006600Y004140D02*
X006600Y003140D01*
X005100Y006640D02*
X004600Y007140D01*
X004600Y011140D01*
X005100Y011640D01*
X005600Y011640D01*
X006100Y011640D01*
X006600Y012140D01*
X007600Y012140D01*
X006100Y013640D01*
X006100Y014640D01*
X006100Y015140D01*
X007100Y016140D01*
X008600Y016140D01*
X009100Y016640D01*
X009100Y017140D01*
X010100Y017140D02*
X010100Y016640D01*
X009100Y015640D01*
X007600Y015640D01*
X007100Y015140D01*
X007100Y014640D01*
X005100Y014640D02*
X005100Y015140D01*
X007100Y017140D01*
X008100Y017140D01*
X010600Y019140D02*
X011600Y018140D01*
X014600Y018140D01*
X020100Y012640D01*
X020100Y007140D01*
X019100Y005140D02*
X019100Y013140D01*
X018600Y013640D01*
X017600Y013640D01*
X019600Y012140D02*
X019600Y004640D01*
X017100Y002140D01*
X012100Y002140D01*
X011600Y002640D01*
X011600Y003140D01*
X010600Y003140D02*
X010600Y002640D01*
X011600Y001640D01*
X016600Y001640D01*
X016600Y003140D02*
X018100Y004640D01*
X018100Y007640D01*
X014100Y007640D01*
X013100Y007140D02*
X012100Y006140D01*
X012100Y005640D01*
X009100Y010640D02*
X005600Y010640D01*
X004100Y011640D02*
X004100Y012640D01*
X005600Y012640D01*
X004100Y012640D02*
X004100Y013640D01*
X005100Y014640D01*
X004600Y017640D02*
X008100Y021140D01*
X011600Y021140D01*
X012100Y020640D01*
X015100Y020640D01*
X015100Y020390D01*
X014600Y019640D02*
X014100Y019140D01*
X016100Y019140D01*
X016100Y020640D01*
X014600Y022140D01*
X005600Y022140D01*
X001100Y017640D01*
X001100Y010640D01*
X002100Y009640D01*
X002600Y009640D01*
X007600Y012140D02*
X009100Y012140D01*
X010100Y012140D02*
X010100Y011640D01*
X009100Y010640D01*
X011600Y011140D02*
X012100Y011640D01*
X012100Y012140D01*
X011600Y019140D02*
X014100Y019140D01*
X011600Y019140D02*
X011100Y019640D01*
X010600Y019140D02*
X010600Y020140D01*
X011600Y020140D01*
X011600Y020390D01*
D13*
X017600Y014140D03*
X019600Y012140D03*
X016100Y009140D03*
X015100Y010140D03*
X014600Y009640D03*
X015100Y011140D03*
X013600Y011140D03*
X013100Y013640D03*
X011100Y009640D03*
X009600Y010140D03*
X009100Y010640D03*
X007600Y006640D03*
X008600Y004640D03*
X015100Y008140D03*
X016100Y007140D03*
X019100Y005140D03*
X020100Y007140D03*
X016600Y001640D03*
X004100Y017640D03*
X001600Y012640D03*
M02*
